<?xml version="1.0" standalone="no"?>
<!DOCTYPE svg PUBLIC "-//W3C//DTD SVG 1.1//EN" "http://www.w3.org/Graphics/SVG/1.1/DTD/svg11.dtd" >
<svg>
<metadata>
Created by FontForge 20090914 at Sat Jul 31 23:15:14 2021
 By www-data
YOSHIYASU ito/DigitalDreamDesign All rights reserved.
</metadata>
<defs>
<font id="DDDRoundSquare" horiz-adv-x="512" >
  <font-face 
    font-family="DDD Round Square"
    font-weight="400"
    font-stretch="normal"
    units-per-em="1024"
    panose-1="2 11 6 0 0 0 0 0 0 0"
    ascent="768"
    descent="-256"
    x-height="719.997"
    cap-height="720.002"
    bbox="39.9961 -220.006 980.004 720.005"
    underline-thickness="48"
    underline-position="-72"
    unicode-range="U+0020-U+2219"
  />
<missing-glyph 
d="M206 400v100h100v-100h-100z" />
    <glyph glyph-name=".notdef" 
d="M206 400v100h100v-100h-100z" />
    <glyph glyph-name="space" unicode=" " horiz-adv-x="900" 
 />
    <glyph glyph-name="exclam" unicode="!" horiz-adv-x="900" 
d="M406 248l-12 192c-2.66699 37.333 -4 64 -4 80c0 22 5.83301 39.167 17.5 51.5s26.834 18.5 45.501 18.5c22.667 0 37.834 -7.83301 45.501 -23.5s11.5 -38.5 11.5 -68.5c0 -17.333 -1 -35.333 -3 -54l-17 -196c-2 -24 -6 -42.167 -12 -54.5s-15.667 -18.5 -29 -18.5
c-14.667 0 -24.834 6.16699 -30.501 18.5s-9.83398 30.5 -12.501 54.5zM450 -14c-16 0 -30.001 5.16699 -42.001 15.5s-18 24.833 -18 43.5c0 16.667 5.83301 30.834 17.5 42.501s25.834 17.5 42.501 17.5c16 0 30 -5.83301 42 -17.5s18 -25.834 18 -42.501
c0 -18.667 -6 -33.167 -18 -43.5s-26 -15.5 -42 -15.5zM39.999 -140l0.000976562 780c0 53.333 26.667 80 80 80h660c53.333 0 80 -33.333 80 -100v-740c0 -66.667 -26.667 -100 -80 -100h-660c-50.667 0 -77.334 26.667 -80.001 80zM120 -100
c2.66699 -29.333 16.001 -42.667 40.001 -40h580c29.333 0 42.666 13.333 39.999 40v700c0 26.667 -13.333 40 -40 40h-580c-26.667 0 -40 -13.333 -40 -40v-700z" />
    <glyph glyph-name="quotedbl" unicode="&#x22;" horiz-adv-x="900" 
d="M573 354c-27.333 -30.667 -55 -30.667 -83 0l-20 109v99c38.667 46.667 79 46.667 121 0v-99zM413 354c-27.333 -30.667 -55 -30.667 -83 0l-20 109v99c38.667 46.667 79 46.667 121 0v-99zM40 -140l0.000976562 780c0 53.333 26.667 80 80 80h660
c53.333 0 80 -33.333 80 -100v-740c0 -66.667 -26.667 -100 -80 -100h-660c-50.667 0 -77.334 26.667 -80.001 80zM120.001 -100c2.66699 -29.333 16.001 -42.667 40.001 -40h580c29.333 0 42.666 13.333 39.999 40v700c0 26.667 -13.333 40 -40 40h-580
c-26.667 0 -40 -13.333 -40 -40v-700z" />
    <glyph glyph-name="numbersign" unicode="#" horiz-adv-x="900" 
d="M315 17l-0.998047 92l-30 -1c-35.333 2 -53 17 -53 45c0 13.333 4.5 24.333 13.5 33s22.833 13 41.5 13h28l1 115h-29c-18 0 -31.667 4.33301 -41 13s-14 19.334 -14 32.001c0 13.333 4.5 24.166 13.5 32.499s22.833 12.5 41.5 12.5h29l-1 91
c0 15.333 1.83301 27.333 5.5 36s8.66699 15.334 15 20.001s15.5 7 27.5 7s21.667 -3.66699 29 -11s11.333 -14 12 -20s1 -17 1 -33l1 -90h87v88c-0.666992 16 0.5 28.167 3.5 36.5s7.66699 15.5 14 21.5s15.5 9 27.5 9c14 0 24.833 -3.66699 32.5 -11
s11.834 -15.333 12.501 -24s1 -19.334 1 -32.001l-1 -89l42 -1c30.667 -0.666992 46 -15.334 46 -44.001c0 -13.333 -4.66699 -24 -14 -32s-23 -12 -41 -12h-34v-115h34c18 0 31.667 -4.33301 41 -13s14 -19.667 14 -33c0 -12.667 -4.66699 -23.167 -14 -31.5
s-23 -12.5 -41 -12.5h-33l1 -94c-0.666992 -12.667 -1.33398 -22.667 -2.00098 -30s-4.83398 -14.333 -12.501 -21s-17.834 -10 -30.501 -10c-13.333 0 -24 3.66699 -32 11s-12.333 14.333 -13 21s-1 17 -1 31v92h-88v-92c0 -22 -3.66699 -38 -11 -48s-18 -15 -32 -15
c-13.333 0 -24.5 5.33301 -33.5 16s-13.167 26.334 -12.5 47.001zM493.002 314h-88l-1 -115h88zM40.002 -140l0.000976562 780c0 53.333 26.667 80 80 80h660c53.333 0 80 -33.333 80 -100v-740c0 -66.667 -26.667 -100 -80 -100h-660c-50.667 0 -77.334 26.667 -80.001 80z
M120.003 -100c2.66699 -29.333 16.001 -42.667 40.001 -40h580c29.333 0 42.666 13.333 39.999 40v700c0 26.667 -13.333 40 -40 40h-580c-26.667 0 -40 -13.333 -40 -40v-700z" />
    <glyph glyph-name="dollar" unicode="$" horiz-adv-x="900" 
d="M477 581l-0.000976562 -22.9971c28 -2.66699 52.333 -8.5 73 -17.5s38.334 -22.5 53.001 -40.5c12.667 -13.333 22.167 -27.166 28.5 -41.499s9.5 -27.833 9.5 -40.5c0 -13.333 -4.83301 -24.666 -14.5 -33.999s-21.5 -14 -35.5 -14c-26 0 -43 14 -51 42
c-8.66699 33.333 -29.667 55.333 -63 66v-166c32.667 -9.33301 58.834 -17.666 78.501 -24.999s37.167 -18.333 52.5 -33c16.667 -14 29.5 -31.167 38.5 -51.5s13.5 -42.5 13.5 -66.5c0 -30.667 -7.16699 -59.334 -21.5 -86.001s-35.333 -48.167 -63 -64.5
s-60.5 -26.166 -98.5 -29.499v-20c0 -15.333 -1.66699 -26.666 -5 -33.999s-10 -11 -20 -11c-9.33301 0 -16 3 -20 9s-6 15 -6 27v28c-30.667 3.33301 -57.667 10.666 -81 21.999s-42.833 25.166 -58.5 41.499s-27.167 33.666 -34.5 51.999s-11 35.833 -11 52.5
c0 12.667 4.83301 24.334 14.5 35.001s22.167 16 37.5 16c12 0 22.167 -2.83301 30.5 -8.5s14.166 -13.5 17.499 -23.5c6.66699 -22 12.667 -38.833 18 -50.5s13.5 -22.334 24.5 -32.001s25.167 -16.834 42.5 -21.501v184c-35.333 10.667 -65 22 -89 34
s-43.5 29.167 -58.5 51.5s-22.5 51.166 -22.5 86.499c0 45.333 14.667 82.666 44 111.999s71.333 46.666 126 51.999v22c0 22.667 8.33301 34 25 34c17.333 0 26 -11 26 -33zM425.999 326.003v154c-22 -6.66699 -39.333 -15.5 -52 -26.5s-19 -27.5 -19 -49.5
c0 -21.333 5.83301 -37.333 17.5 -48s29.5 -20.667 53.5 -30zM476.999 209.003l-0.00195312 -174.999c26.667 5.33301 47.334 16 62.001 32s22 34.667 22 56c0 24 -7.16699 42.167 -21.5 54.5s-35.166 23.166 -62.499 32.499zM39.9971 -139.996l0.000976562 780
c0 53.333 26.667 80 80 80h660c53.333 0 80 -33.333 80 -100v-740c0 -66.667 -26.667 -100 -80 -100h-660c-50.667 0 -77.334 26.667 -80.001 80zM119.998 -99.9961c2.66699 -29.333 16.001 -42.667 40.001 -40h580c29.333 0 42.666 13.333 39.999 40v700
c0 26.667 -13.333 40 -40 40h-580c-26.667 0 -40 -13.333 -40 -40v-700z" />
    <glyph glyph-name="percent" unicode="%" horiz-adv-x="900" 
d="M382 385c0 -45.333 -9.66699 -78.166 -29 -98.499s-46 -30.5 -80 -30.5c-20.667 0 -39.334 4.33301 -56.001 13s-29.667 22.5 -39 41.5s-14 42.5 -14 70.5c0 30 3.5 55.167 10.5 75.5s18.667 35.666 35 45.999s37.166 15.5 62.499 15.5c17.333 0 32.833 -2.66699 46.5 -8
s25.334 -13.833 35.001 -25.5s16.834 -25.667 21.501 -42s7 -35.5 7 -57.5zM317 388c0 30.667 -3.16699 52.833 -9.5 66.5s-17.833 20.5 -34.5 20.5c-11.333 0 -20.333 -3.33301 -27 -10s-11.167 -16.5 -13.5 -29.5s-3.5 -29.167 -3.5 -48.5
c0 -21.333 1.16699 -38.5 3.5 -51.5s6.83301 -22.667 13.5 -29s15.667 -9.5 27 -9.5c16.667 0 28.167 7.33301 34.5 22s9.5 37.667 9.5 69zM737 133.999c0 -43.333 -9.83398 -75.668 -29.501 -97.001s-46.5 -32 -80.5 -32c-21.333 0 -40.166 4.5 -56.499 13.5
s-29.333 23 -39 42s-14.5 42.833 -14.5 71.5c0 44.667 8.66699 78.167 26 100.5s45 33.5 83 33.5c18 0 33.667 -2.5 47 -7.5s24.833 -13 34.5 -24s17 -24.667 22 -41s7.5 -36.166 7.5 -59.499zM670.999 137.997c0 30 -3.33301 52.001 -10 66.001s-18 21 -34 21
c-11.333 0 -20.333 -3.5 -27 -10.5s-11.5 -16.5 -14.5 -28.5s-4.5 -28.333 -4.5 -49c0 -30.667 3.5 -53.334 10.5 -68.001s18.833 -22 35.5 -22s28.167 7.5 34.5 22.5s9.5 37.833 9.5 68.5zM39.999 -140.002l0.000976562 780c0 53.333 26.667 80 80 80h660
c53.333 0 80 -33.333 80 -100v-740c0 -66.667 -26.667 -100 -80 -100h-660c-50.667 0 -77.334 26.667 -80.001 80zM120 -100.002c2.66699 -29.333 16.001 -42.667 40.001 -40h580c29.333 0 42.666 13.333 39.999 40v700c0 26.667 -13.333 40 -40 40h-580
c-26.667 0 -40 -13.333 -40 -40v-700zM614.001 452.997l-287.999 -435.999c-10.667 -18 -22.334 -27 -35.001 -27c-7.33301 0 -14.833 2.83301 -22.5 8.5s-11.5 13.167 -11.5 22.5c0 7.33301 3.33301 15.666 10 24.999l290 441c7.33301 12 13.833 21.167 19.5 27.5
s13.167 9.5 22.5 9.5c10 0 18 -3 24 -9s9 -13.667 9 -23c0 -7.33301 -6 -20.333 -18 -39z" />
    <glyph glyph-name="ampersand" unicode="&#x26;" horiz-adv-x="900" 
d="M252 470c0 25.333 6.49707 48.167 19.4971 68.5s32 36.5 57 48.5s54.5 18 88.5 18c32.667 0 61.334 -6.33301 86.001 -19s43.167 -29.167 55.5 -49.5s18.5 -41.166 18.5 -62.499c0 -30 -9.83301 -56.167 -29.5 -78.5s-48.834 -44.833 -87.501 -67.5l37 -43.5l33 -38.5
c10.667 -12 20.334 -22.333 29.001 -31c4.66699 7.33301 11 21.333 19 42s15.833 35.334 23.5 44.001s18.167 13 31.5 13c12 0 22.833 -4.33301 32.5 -13s14.5 -19.334 14.5 -32.001c0 -12 -4.16699 -28.667 -12.5 -50s-20.166 -45 -35.499 -71
c9.33301 -8.66699 24.833 -21.667 46.5 -39s35 -29.166 40 -35.499s7.5 -14.5 7.5 -24.5c0 -14 -5 -25.667 -15 -35s-21 -14 -33 -14c-13.333 0 -25.833 3.83301 -37.5 11.5s-36.5 27.167 -74.5 58.5c-17.333 -16 -35.166 -29.333 -53.499 -40s-38 -18.334 -59 -23.001
s-44.833 -7 -71.5 -7c-32.667 0 -62.334 4.83301 -89.001 14.5s-48.834 22.667 -66.501 39s-30.834 34.5 -39.501 54.5s-13 40.667 -13 62c0 20 3.33301 38.333 10 55s15.834 31.667 27.501 45s25.834 26 42.501 38s36.334 23.667 59.001 35
c-20 25.333 -35.167 47.666 -45.5 66.999s-15.5 39.333 -15.5 60zM365.997 280.001c-27.333 -16 -47.833 -31.833 -61.5 -47.5s-20.5 -34.167 -20.5 -55.5c0 -12.667 2.5 -24.5 7.5 -35.5s12.167 -21.333 21.5 -31s20.333 -17 33 -22s26 -7.5 40 -7.5
c13.333 0 26.5 2.16699 39.5 6.5s25 10.333 36 18s22.833 17.167 35.5 28.5c-24 22 -45.333 43.833 -64 65.5zM405.997 389.001c27.333 16.667 46.834 31 58.501 43s17.5 26.333 17.5 43s-5.83301 30.667 -17.5 42s-26.834 17 -45.501 17c-18 0 -33.333 -5.83301 -46 -17.5
s-19 -25.167 -19 -40.5c0 -8 2.5 -16.5 7.5 -25.5s11 -18 18 -27zM39.998 -139.999l0.000976562 780c0 53.333 26.667 80 80 80h660c53.333 0 80 -33.333 80 -100v-740c0 -66.667 -26.667 -100 -80 -100h-660c-50.667 0 -77.334 26.667 -80.001 80zM119.999 -99.999
c2.66699 -29.333 16.001 -42.667 40.001 -40h580c29.333 0 42.666 13.333 39.999 40v700c0 26.667 -13.333 40 -40 40h-580c-26.667 0 -40 -13.333 -40 -40v-700z" />
    <glyph glyph-name="quotesingle" unicode="'" horiz-adv-x="900" 
d="M493 358c-27.333 -30.667 -55 -30.667 -83 0l-20 109v99c38.667 46.667 79 46.667 121 0v-99zM40 -140l0.000976562 780c0 53.333 26.667 80 80 80h660c53.333 0 80 -33.333 80 -100v-740c0 -66.667 -26.667 -100 -80 -100h-660c-50.667 0 -77.334 26.667 -80.001 80z
M120.001 -100c2.66699 -29.333 16.001 -42.667 40.001 -40h580c29.333 0 42.666 13.333 39.999 40v700c0 26.667 -13.333 40 -40 40h-580c-26.667 0 -40 -13.333 -40 -40v-700z" />
    <glyph glyph-name="parenleft" unicode="(" horiz-adv-x="900" 
d="M371 256c0 32 2.83496 62 8.50195 90s14.167 55.5 25.5 82.5s25.333 54.167 42 81.5c9.33301 16.667 17.5 28.667 24.5 36s13.333 12 19 14s13.5 3 23.5 3c10.667 0 16 -3 16 -9c0 -2 -5 -13.5 -15 -34.5s-19.333 -43.167 -28 -66.5s-16.667 -52.5 -24 -87.5
s-11 -71.5 -11 -109.5s3.66699 -74.167 11 -108.5s15.666 -64.166 24.999 -89.499s18.666 -47.833 27.999 -67.5s14 -30.167 14 -31.5c0 -6.66699 -5.33301 -10 -16 -10c-10 0 -18 1.16699 -24 3.5s-12.333 7.16602 -19 14.499s-14.667 19.333 -24 36
c-16.667 28 -30.5 55 -41.5 81s-19.5 53.167 -25.5 81.5s-9 58.5 -9 90.5zM40.002 -140l0.000976562 780c0 53.333 26.667 80 80 80h660c53.333 0 80 -33.333 80 -100v-740c0 -66.667 -26.667 -100 -80 -100h-660c-50.667 0 -77.334 26.667 -80.001 80zM120.003 -100
c2.66699 -29.333 16.001 -42.667 40.001 -40h580c29.333 0 42.666 13.333 39.999 40v700c0 26.667 -13.333 40 -40 40h-580c-26.667 0 -40 -13.333 -40 -40v-700z" />
    <glyph glyph-name="parenright" unicode=")" horiz-adv-x="900" 
d="M530 256c0 -46.667 -6.5 -90.1709 -19.5 -130.504s-31.833 -81.166 -56.5 -122.499c-13.333 -23.333 -24.166 -38.166 -32.499 -44.499s-19.833 -9.5 -34.5 -9.5c-10.667 0 -16 3.33301 -16 10c0 1.33301 4.5 11.333 13.5 30s18.333 40.834 28 66.501s18.167 56 25.5 91
s11 71.5 11 109.5s-3.66699 74.5 -11 109.5s-15.833 65.333 -25.5 91s-19 48 -28 67s-13.5 29.167 -13.5 30.5c0 6 5.33301 9 16 9c15.333 0 27 -2.83301 35 -8.5s18.667 -20.5 32 -44.5c12 -20.667 22.833 -41.167 32.5 -61.5s17.667 -40.666 24 -60.999
s11.166 -41.5 14.499 -63.5s5 -44.667 5 -68zM40 -140.004l0.000976562 780c0 53.333 26.667 80 80 80h660c53.333 0 80 -33.333 80 -100v-740c0 -66.667 -26.667 -100 -80 -100h-660c-50.667 0 -77.334 26.667 -80.001 80zM120.001 -100.004
c2.66699 -29.333 16.001 -42.667 40.001 -40h580c29.333 0 42.666 13.333 39.999 40v700c0 26.667 -13.333 40 -40 40h-580c-26.667 0 -40 -13.333 -40 -40v-700z" />
    <glyph glyph-name="asterisk" unicode="*" horiz-adv-x="900" 
d="M478 281l61.498 29.9961c19.667 10 35.334 17.333 47.001 22s21.167 7 28.5 7c11.333 0 21.333 -3.83301 30 -11.5s13 -17.5 13 -29.5c0 -6.66699 -2.16699 -13.5 -6.5 -20.5s-8.83301 -11.5 -13.5 -13.5c-42.667 -17.333 -90 -29.666 -142 -36.999
c9.33301 -8.66699 20.833 -20.167 34.5 -34.5s20.834 -22.166 21.501 -23.499c5.33301 -6.66699 12.5 -15.167 21.5 -25.5s15.167 -18.5 18.5 -24.5s5 -13 5 -21c0 -10.667 -4 -20 -12 -28s-18.333 -12 -31 -12s-26.834 9.83301 -42.501 29.5s-36.167 54.834 -61.5 105.501
c-25.333 -46 -42.333 -76.333 -51 -91s-17 -25.667 -25 -33s-17 -11 -27 -11c-12.667 0 -23 4.16699 -31 12.5s-12 17.5 -12 27.5c0 8.66699 1.66699 15.334 5 20.001c30.667 42 62.667 78.333 96 109c-28 4 -53 8.66699 -75 14s-45.333 13.333 -70 24c-4 2 -8 6.5 -12 13.5
s-6 13.5 -6 19.5c0 12 4.33301 21.833 13 29.5s18.334 11.5 29.001 11.5c8 0 18 -2.33301 30 -7s27.333 -11.667 46 -21l63 -31c-4 21.333 -7.5 45.5 -10.5 72.5s-4.5 45.5 -4.5 55.5c0 12.667 4 23.334 12 32.001s18 13 30 13s22 -4.33301 30 -13s12 -20.334 12 -35.001
c0 -4 -0.666992 -12 -2 -24l-5 -43zM39.998 -140.004l0.000976562 780c0 53.333 26.667 80 80 80h660c53.333 0 80 -33.333 80 -100v-740c0 -66.667 -26.667 -100 -80 -100h-660c-50.667 0 -77.334 26.667 -80.001 80zM119.999 -100.004
c2.66699 -29.333 16.001 -42.667 40.001 -40h580c29.333 0 42.666 13.333 39.999 40v700c0 26.667 -13.333 40 -40 40h-580c-26.667 0 -40 -13.333 -40 -40v-700z" />
    <glyph glyph-name="plus" unicode="+" horiz-adv-x="900" 
d="M501 60c-14 -13.333 -31.667 -22.667 -53 -28c-21.333 5.33301 -38 14.666 -50 27.999v144h-144c-17.333 10.667 -27.333 28 -30 52c2.66699 21.333 12.667 38.666 30 51.999h144v145c12 20.667 28.667 33.667 50 39c21.333 -2.66699 39 -15.667 53 -39v-145h146
c11.333 -13.333 18.333 -30.666 21 -51.999c-2.66699 -21.333 -9.66699 -38.666 -21 -51.999h-146v-144zM40 -140.001l0.000976562 780c0 53.333 26.667 80 80 80h660c53.333 0 80 -33.333 80 -100v-740c0 -66.667 -26.667 -100 -80 -100h-660
c-50.667 0 -77.334 26.667 -80.001 80zM120.001 -100.001c2.66699 -29.333 16.001 -42.667 40.001 -40h580c29.333 0 42.666 13.333 39.999 40v700c0 26.667 -13.333 40 -40 40h-580c-26.667 0 -40 -13.333 -40 -40v-700z" />
    <glyph glyph-name="comma" unicode="," horiz-adv-x="900" 
d="M450 -12c-18 0 -33.333 5.16602 -46 15.499s-19 25.166 -19 44.499c0 16.667 6.16699 30.834 18.5 42.501s27.166 17.5 44.499 17.5c12 0 23.333 -3.5 34 -10.5s18.834 -17.333 24.501 -31s8.5 -30.5 8.5 -50.5c0 -25.333 -5.5 -49.5 -16.5 -72.5
s-24.5 -41.333 -40.5 -55s-30.667 -20.5 -44 -20.5c-8 0 -14.667 2.83301 -20 8.5s-8 12.167 -8 19.5c0 10.667 5.33301 19.334 16 26.001c32 17.333 48 39.333 48 66zM40 -140.001l0.000976562 780c0 53.333 26.667 80 80 80h660c53.333 0 80 -33.333 80 -100v-740
c0 -66.667 -26.667 -100 -80 -100h-660c-50.667 0 -77.334 26.667 -80.001 80zM120.001 -100.001c2.66699 -29.333 16.001 -42.667 40.001 -40h580c29.333 0 42.666 13.333 39.999 40v700c0 26.667 -13.333 40 -40 40h-580c-26.667 0 -40 -13.333 -40 -40v-700z" />
    <glyph glyph-name="hyphen" unicode="-" horiz-adv-x="900" 
d="M570 196h-239c-36.667 0 -64.5 5.5 -83.5 16.5s-28.5 25.5 -28.5 43.5s9.33301 32.5 28 43.5s46.667 16.5 84 16.5h239c37.333 0 65.166 -5.5 83.499 -16.5s27.5 -25.5 27.5 -43.5s-9.16699 -32.5 -27.5 -43.5s-46.166 -16.5 -83.499 -16.5zM40 -140l0.000976562 780
c0 53.333 26.667 80 80 80h660c53.333 0 80 -33.333 80 -100v-740c0 -66.667 -26.667 -100 -80 -100h-660c-50.667 0 -77.334 26.667 -80.001 80zM120.001 -100c2.66699 -29.333 16.001 -42.667 40.001 -40h580c29.333 0 42.666 13.333 39.999 40v700
c0 26.667 -13.333 40 -40 40h-580c-26.667 0 -40 -13.333 -40 -40v-700z" />
    <glyph glyph-name="period" unicode="." horiz-adv-x="900" 
d="M450 3c-16 0 -30.001 5.33301 -42.001 16s-18 25.334 -18 44.001c0 16 5.83301 30 17.5 42s25.834 18 42.501 18c16 0 30 -6 42 -18s18 -26 18 -42c0 -18.667 -6 -33.334 -18 -44.001s-26 -16 -42 -16zM39.999 -140l0.000976562 780c0 53.333 26.667 80 80 80h660
c53.333 0 80 -33.333 80 -100v-740c0 -66.667 -26.667 -100 -80 -100h-660c-50.667 0 -77.334 26.667 -80.001 80zM120 -100c2.66699 -29.333 16.001 -42.667 40.001 -40h580c29.333 0 42.666 13.333 39.999 40v700c0 26.667 -13.333 40 -40 40h-580
c-26.667 0 -40 -13.333 -40 -40v-700z" />
    <glyph glyph-name="slash" unicode="/" horiz-adv-x="900" 
d="M546 524l-110.999 -461.002c-3.33301 -14.667 -6.5 -26.5 -9.5 -35.5s-7.33301 -15.833 -13 -20.5s-14.167 -7 -25.5 -7c-27.333 0 -41 11.333 -41 34c0 6.66699 2.66699 22.334 8 47.001l112 460c5.33301 24.667 10.666 41.5 15.999 50.5s16 13.5 32 13.5
c13.333 0 23.333 -3.16699 30 -9.5s10 -15.166 10 -26.499c0 -8 -2.66699 -23 -8 -45zM40.001 -140.002l0.000976562 780c0 53.333 26.667 80 80 80h660c53.333 0 80 -33.333 80 -100v-740c0 -66.667 -26.667 -100 -80 -100h-660c-50.667 0 -77.334 26.667 -80.001 80z
M120.002 -100.002c2.66699 -29.333 16.001 -42.667 40.001 -40h580c29.333 0 42.666 13.333 39.999 40v700c0 26.667 -13.333 40 -40 40h-580c-26.667 0 -40 -13.333 -40 -40v-700z" />
    <glyph glyph-name="zero" unicode="0" horiz-adv-x="900" 
d="M654 253c0 -43.333 -2.66406 -80.833 -7.99707 -112.5s-15 -60.167 -29 -85.5c-18 -31.333 -41.5 -55.5 -70.5 -72.5s-61.167 -25.5 -96.5 -25.5c-40 0 -76 11.333 -108 34s-56 54.334 -72 95.001c-8.66699 22.667 -14.834 47.334 -18.501 74.001s-5.5 55.667 -5.5 87
c0 39.333 2 75.166 6 107.499s10.667 60.166 20 83.499c15.333 38.667 38.166 68 68.499 88s66.166 30 107.499 30c26.667 0 51.167 -4.5 73.5 -13.5s42 -22.167 59 -39.5s31.5 -38.333 43.5 -63c20 -44.667 30 -107 30 -187zM545.003 260c0 49.333 -3 89.499 -9 120.499
s-15.833 54.5 -29.5 70.5s-32.5 24 -56.5 24c-35.333 0 -60 -17.833 -74 -53.5s-21 -90.5 -21 -164.5c0 -49.333 3 -90 9 -122s15.833 -56.167 29.5 -72.5s32.5 -24.5 56.5 -24.5s43 8.5 57 25.5s23.833 41.333 29.5 73s8.5 72.834 8.5 123.501zM40.0029 -140.001
l0.000976562 780c0 53.333 26.667 80 80 80h660c53.333 0 80 -33.333 80 -100v-740c0 -66.667 -26.667 -100 -80 -100h-660c-50.667 0 -77.334 26.667 -80.001 80zM120.004 -100.001c2.66699 -29.333 16.001 -42.667 40.001 -40h580c29.333 0 42.666 13.333 39.999 40v700
c0 26.667 -13.333 40 -40 40h-580c-26.667 0 -40 -13.333 -40 -40v-700z" />
    <glyph glyph-name="one" unicode="1" horiz-adv-x="900" 
d="M434 21l-0.000976562 363c-67.333 -51.333 -112.666 -77 -135.999 -77c-11.333 0 -21.5 4.33301 -30.5 13s-13.5 19 -13.5 31c0 14 4.33301 24.167 13 30.5s24 14.5 46 24.5c32 14.667 57.5 30.5 76.5 47.5s36 35.833 51 56.5s24.833 33.5 29.5 38.5s13 7.5 25 7.5
c14.667 0 26.167 -5.5 34.5 -16.5s12.5 -26.167 12.5 -45.5v-457c0 -53.333 -18.333 -80 -55 -80c-16 0 -28.833 5.33301 -38.5 16s-14.5 26.667 -14.5 48zM39.999 -140l0.000976562 780c0 53.333 26.667 80 80 80h660c53.333 0 80 -33.333 80 -100v-740
c0 -66.667 -26.667 -100 -80 -100h-660c-50.667 0 -77.334 26.667 -80.001 80zM120 -100c2.66699 -29.333 16.001 -42.667 40.001 -40h580c29.333 0 42.666 13.333 39.999 40v700c0 26.667 -13.333 40 -40 40h-580c-26.667 0 -40 -13.333 -40 -40v-700z" />
    <glyph glyph-name="two" unicode="2" horiz-adv-x="900" 
d="M383 56l208.001 -0.00195312c20.667 0 36.5 -4.16699 47.5 -12.5s16.5 -20.166 16.5 -35.499c0 -12.667 -4.16699 -23.5 -12.5 -32.5s-21.5 -13.5 -39.5 -13.5h-293c-20.667 0 -36.5 5.5 -47.5 16.5s-16.5 23.833 -16.5 38.5c0 10 3.5 23 10.5 39s14.833 28.333 23.5 37
c36 36.667 68.167 68.167 96.5 94.5s48.833 43.833 61.5 52.5c21.333 14.667 39.166 29.667 53.499 45s25.333 31.333 33 48s11.5 32.667 11.5 48c0 17.333 -4.16699 32.833 -12.5 46.5s-19.333 24.167 -33 31.5s-28.5 11 -44.5 11c-35.333 0 -63 -15.333 -83 -46
c-2.66699 -4 -7.16699 -15 -13.5 -33s-13.333 -31.667 -21 -41s-19.167 -14 -34.5 -14c-13.333 0 -24.5 4.33301 -33.5 13s-13.5 20.334 -13.5 35.001c0 18.667 4.16699 38 12.5 58s20.833 38.167 37.5 54.5s37.5 29.5 62.5 39.5s54.5 15 88.5 15
c40 0 74.333 -6.33301 103 -19c18.667 -8.66699 35.167 -20.5 49.5 -35.5s25.5 -32.167 33.5 -51.5s12 -39.666 12 -60.999c0 -33.333 -8.33301 -63.333 -25 -90s-33.5 -47.667 -50.5 -63s-45.333 -39.5 -85 -72.5s-67.167 -58.5 -82.5 -76.5
c-6 -6.66699 -12.667 -15.334 -20 -26.001zM40.001 -140.002l0.000976562 780c0 53.333 26.667 80 80 80h660c53.333 0 80 -33.333 80 -100v-740c0 -66.667 -26.667 -100 -80 -100h-660c-50.667 0 -77.334 26.667 -80.001 80zM120.002 -100.002
c2.66699 -29.333 16.001 -42.667 40.001 -40h580c29.333 0 42.666 13.333 39.999 40v700c0 26.667 -13.333 40 -40 40h-580c-26.667 0 -40 -13.333 -40 -40v-700z" />
    <glyph glyph-name="three" unicode="3" horiz-adv-x="900" 
d="M430 320c24 0 44.832 7.1709 62.499 21.5039s26.5 35.166 26.5 62.499c0 20 -7 37.5 -21 52.5s-32.667 22.5 -56 22.5c-16.667 0 -30.167 -2.33301 -40.5 -7s-18.666 -10.667 -24.999 -18s-12.333 -16.833 -18 -28.5s-10.5 -22.834 -14.5 -33.501
c-2.66699 -5.33301 -7.5 -9.66602 -14.5 -12.999s-14.833 -5 -23.5 -5c-10.667 0 -20.667 4.33301 -30 13s-14 20 -14 34s4.33301 28.667 13 44s21 30 37 44s36 25.167 60 33.5s50.667 12.5 80 12.5c25.333 0 48.666 -3.5 69.999 -10.5s40 -17.167 56 -30.5
s28 -28.833 36 -46.5s12 -36.5 12 -56.5c0 -26.667 -5.83301 -49.667 -17.5 -69s-28.5 -38 -50.5 -56c21.333 -11.333 39.166 -24 53.499 -38s25 -29.667 32 -47s10.5 -36.333 10.5 -57c0 -24 -4.83301 -47.333 -14.5 -70s-24 -42.834 -43 -60.501s-41.5 -31.5 -67.5 -41.5
s-54.333 -15 -85 -15c-32 0 -60.667 5.66699 -86 17s-46.333 25.666 -63 42.999s-29 35.166 -37 53.499s-12 33.5 -12 45.5c0 15.333 4.83301 27.833 14.5 37.5s22.167 14.5 37.5 14.5c7.33301 0 14.5 -2.33301 21.5 -7s11.5 -10 13.5 -16c14 -37.333 29 -64.833 45 -82.5
s38.333 -26.5 67 -26.5c16 0 31.5 4 46.5 12s27.667 20 38 36s15.5 34.667 15.5 56c0 30.667 -8.5 55 -25.5 73s-40.5 27 -70.5 27c-5.33301 0 -13.666 -0.666992 -24.999 -2s-18.666 -2 -21.999 -2c-14.667 0 -26 3.5 -34 10.5s-12 17.167 -12 30.5
c0 12.667 4.83301 23 14.5 31s24.167 12 43.5 12h16zM39.999 -139.996l0.000976562 780c0 53.333 26.667 80 80 80h660c53.333 0 80 -33.333 80 -100v-740c0 -66.667 -26.667 -100 -80 -100h-660c-50.667 0 -77.334 26.667 -80.001 80zM120 -99.9961
c2.66699 -29.333 16.001 -42.667 40.001 -40h580c29.333 0 42.666 13.333 39.999 40v700c0 26.667 -13.333 40 -40 40h-580c-26.667 0 -40 -13.333 -40 -40v-700z" />
    <glyph glyph-name="four" unicode="4" horiz-adv-x="900" 
d="M495 15l-0.000976562 74.002h-200c-24.667 0 -43.5 5.83301 -56.5 17.5s-19.5 27.167 -19.5 46.5c0 5.33301 1 10.5 3 15.5s4.83301 10.5 8.5 16.5s7.5 11.667 11.5 17s9 11.666 15 18.999l211 283c14 18.667 25.5 32.167 34.5 40.5s19.5 12.5 31.5 12.5
c40.667 0 61 -23 61 -69v-309h18c20 0 36.333 -2.83301 49 -8.5s19 -17.834 19 -36.501c0 -15.333 -5.16699 -26.666 -15.5 -33.999s-25.5 -11 -45.5 -11h-25v-74c0 -20.667 -4.5 -35.834 -13.5 -45.501s-20.833 -14.5 -35.5 -14.5c-15.333 0 -27.666 5 -36.999 15
s-14 25 -14 45zM323.999 179.002h171v232zM39.999 -139.998l0.000976562 780c0 53.333 26.667 80 80 80h660c53.333 0 80 -33.333 80 -100v-740c0 -66.667 -26.667 -100 -80 -100h-660c-50.667 0 -77.334 26.667 -80.001 80zM120 -99.998
c2.66699 -29.333 16.001 -42.667 40.001 -40h580c29.333 0 42.666 13.333 39.999 40v700c0 26.667 -13.333 40 -40 40h-580c-26.667 0 -40 -13.333 -40 -40v-700z" />
    <glyph glyph-name="five" unicode="5" horiz-adv-x="900" 
d="M580 457l-190.001 -0.000976562l-22 -129c38 20 72.667 30 104 30c25.333 0 49.166 -4.83301 71.499 -14.5s41.833 -22.834 58.5 -39.501s29.834 -36.5 39.501 -59.5s14.5 -47.833 14.5 -74.5c0 -38.667 -8.66699 -74 -26 -106s-42.333 -57.167 -75 -75.5
s-70 -27.5 -112 -27.5c-48 0 -86.833 8.66699 -116.5 26s-50.667 37.5 -63 60.5s-18.5 43.167 -18.5 60.5c0 10 4.33301 19.667 13 29s19.334 14 32.001 14c22.667 0 39.667 -13 51 -39c10.667 -24 25 -42.5 43 -55.5s38.333 -19.5 61 -19.5
c19.333 0 36.833 5.33301 52.5 16s27.667 25.334 36 44.001s12.5 39.667 12.5 63c0 26 -4.5 48 -13.5 66s-21 31.5 -36 40.5s-31.833 13.5 -50.5 13.5c-22.667 0 -39 -2.83301 -49 -8.5s-24.333 -15.5 -43 -29.5s-33.667 -21 -45 -21
c-13.333 0 -25.166 4.83301 -35.499 14.5s-15.5 20.167 -15.5 31.5c0 1.33301 1.66699 10.333 5 27l34 192c3.33301 22.667 10.166 39.334 20.499 50.001s26.833 16 49.5 16h211c41.333 0 62 -16 62 -48c0 -14 -5 -25.333 -15 -34s-25 -13 -45 -13zM39.999 -140.001
l0.000976562 780c0 53.333 26.667 80 80 80h660c53.333 0 80 -33.333 80 -100v-740c0 -66.667 -26.667 -100 -80 -100h-660c-50.667 0 -77.334 26.667 -80.001 80zM120 -100.001c2.66699 -29.333 16.001 -42.667 40.001 -40h580c29.333 0 42.666 13.333 39.999 40v700
c0 26.667 -13.333 40 -40 40h-580c-26.667 0 -40 -13.333 -40 -40v-700z" />
    <glyph glyph-name="six" unicode="6" horiz-adv-x="900" 
d="M352 283c18 22 37.666 38.167 58.999 48.5s45 15.5 71 15.5c25.333 0 48.833 -4.83301 70.5 -14.5s40.5 -23.167 56.5 -40.5s28.333 -37.666 37 -60.999s13 -48.333 13 -75c0 -37.333 -8.5 -71.333 -25.5 -102s-41 -54.5 -72 -71.5s-65.833 -25.5 -104.5 -25.5
c-44.667 0 -83.167 10.833 -115.5 32.5s-57 54 -74 97s-25.5 95.5 -25.5 157.5c0 49.333 5.16699 93.833 15.5 133.5s25.166 72.667 44.499 99s42.833 46.166 70.5 59.499s58.834 20 93.501 20s65 -6.66699 91 -20s45.5 -30 58.5 -50s19.5 -39 19.5 -57
c0 -10.667 -4.16699 -20.5 -12.5 -29.5s-18.833 -13.5 -31.5 -13.5c-11.333 0 -21.666 3.66699 -30.999 11s-16.333 17 -21 29c-6 16 -15.667 29 -29 39s-29 15 -47 15c-13.333 0 -27 -4.16699 -41 -12.5s-26 -19.5 -36 -33.5c-18.667 -28 -30 -78.333 -34 -151zM458.999 36
c27.333 0 49.832 10.835 67.499 32.502s26.5 50.5 26.5 86.5c0 24.667 -4.16699 45.667 -12.5 63s-19.666 30.5 -33.999 39.5s-30.5 13.5 -48.5 13.5c-16 0 -31.333 -4.33301 -46 -13s-26.667 -21.334 -36 -38.001s-14 -36.334 -14 -59.001c0 -35.333 9.33301 -65 28 -89
s41.667 -36 69 -36zM39.998 -139.998l0.000976562 780c0 53.333 26.667 80 80 80h660c53.333 0 80 -33.333 80 -100v-740c0 -66.667 -26.667 -100 -80 -100h-660c-50.667 0 -77.334 26.667 -80.001 80zM119.999 -99.998c2.66699 -29.333 16.001 -42.667 40.001 -40h580
c29.333 0 42.666 13.333 39.999 40v700c0 26.667 -13.333 40 -40 40h-580c-26.667 0 -40 -13.333 -40 -40v-700z" />
    <glyph glyph-name="seven" unicode="7" horiz-adv-x="900" 
d="M314 551l265.999 -0.00195312c25.333 0 43.833 -4 55.5 -12s17.5 -21.333 17.5 -40c0 -11.333 -6.66699 -26.166 -20 -44.499l-46 -61c-17.333 -22.333 -35.166 -50 -53.499 -83s-35.166 -73.167 -50.499 -120.5c-6 -20.667 -10.333 -38 -13 -52s-5.66699 -32 -9 -54
s-6 -39 -8 -51c-5.33301 -27.333 -13.166 -46.166 -23.499 -56.499s-23.833 -15.5 -40.5 -15.5s-30 5.66699 -40 17s-15 28 -15 50c0 16.667 3.66699 39.667 11 69s19.166 64.5 35.499 105.5s36.666 82.833 60.999 125.5s53.166 85.334 86.499 128.001h-214
c-22 0 -38.5 4.16699 -49.5 12.5s-16.5 21.166 -16.5 38.499c0 18.667 5.83301 30.667 17.5 36s27.834 8 48.501 8zM39.999 -140.002l0.000976562 780c0 53.333 26.667 80 80 80h660c53.333 0 80 -33.333 80 -100v-740c0 -66.667 -26.667 -100 -80 -100h-660
c-50.667 0 -77.334 26.667 -80.001 80zM120 -100.002c2.66699 -29.333 16.001 -42.667 40.001 -40h580c29.333 0 42.666 13.333 39.999 40v700c0 26.667 -13.333 40 -40 40h-580c-26.667 0 -40 -13.333 -40 -40v-700z" />
    <glyph glyph-name="eight" unicode="8" horiz-adv-x="900" 
d="M262 403c0 26.667 7.33301 51.667 22 75s36 42.166 64 56.499s60.667 21.5 98 21.5c31.333 0 59 -4.16699 83 -12.5s44 -19.666 60 -33.999s27.833 -30.833 35.5 -49.5s11.5 -38 11.5 -58c0 -26 -6.66699 -49.333 -20 -70s-33.333 -37.667 -60 -51
c22.667 -8.66699 41.334 -20 56.001 -34s26 -30.333 34 -49s12 -39.334 12 -62.001c0 -34 -8.16699 -64.667 -24.5 -92s-40.333 -48.666 -72 -63.999s-68.834 -23 -111.501 -23c-43.333 0 -80.833 7.66699 -112.5 23s-55.5 36.5 -71.5 63.5s-24 57.5 -24 91.5
c0 71.333 34 120 102 146c-54.667 26 -82 66.667 -82 122zM548 139c0 20.667 -4.33789 38.668 -13.0049 54.001s-20.667 27.166 -36 35.499s-32.333 12.5 -51 12.5c-27.333 0 -50.166 -9 -68.499 -27s-27.5 -43.333 -27.5 -76c0 -20.667 4.33301 -39 13 -55
s20.334 -28.333 35.001 -37s31.334 -13 50.001 -13s35.334 4.5 50.001 13.5s26.334 21.5 35.001 37.5s13 34.333 13 55zM448.995 480.001c-25.333 0 -45.665 -8 -60.998 -24s-23 -36 -23 -60c0 -22.667 7.83301 -41.667 23.5 -57s36.167 -23 61.5 -23
c11.333 0 22.166 2 32.499 6s19.166 9.66699 26.499 17s13 15.833 17 25.5s6 20.167 6 31.5c0 16 -3.5 30.333 -10.5 43s-16.833 22.667 -29.5 30s-27 11 -43 11zM39.9961 -139.999l0.000976562 780c0 53.333 26.667 80 80 80h660c53.333 0 80 -33.333 80 -100v-740
c0 -66.667 -26.667 -100 -80 -100h-660c-50.667 0 -77.334 26.667 -80.001 80zM119.997 -99.999c2.66699 -29.333 16.001 -42.667 40.001 -40h580c29.333 0 42.666 13.333 39.999 40v700c0 26.667 -13.333 40 -40 40h-580c-26.667 0 -40 -13.333 -40 -40v-700z" />
    <glyph glyph-name="nine" unicode="9" horiz-adv-x="900" 
d="M548 228c-17.333 -20.667 -37.001 -36.1689 -59.001 -46.502s-45.667 -15.5 -71 -15.5s-49 4.83301 -71 14.5s-40.833 23.334 -56.5 41.001s-27.667 37.834 -36 60.501s-12.5 47 -12.5 73c0 27.333 4.66699 53.333 14 78s23 46 41 64s39.333 32.167 64 42.5
s51.667 15.5 81 15.5c34.667 0 65.334 -6.33301 92.001 -19s49.334 -30.834 68.001 -54.501s32.834 -53.667 42.501 -90s14.5 -77.5 14.5 -123.5c0 -50.667 -5.16699 -95.5 -15.5 -134.5s-25.5 -71.667 -45.5 -98s-43.833 -46 -71.5 -59s-58.834 -19.5 -93.501 -19.5
s-64.834 6.5 -90.501 19.5s-45.167 29.333 -58.5 49s-20 38.5 -20 56.5c0 11.333 4.16699 21.333 12.5 30s18.833 13 31.5 13c12 0 22.667 -3.16699 32 -9.5s16.333 -16.166 21 -29.499c6 -16 15.667 -28.833 29 -38.5s28.666 -14.5 45.999 -14.5
c14.667 0 28.834 3.83301 42.501 11.5s25.5 18.5 35.5 32.5c18.667 28.667 30 79 34 151zM537.999 349.998c0 18 -2.33301 34.834 -7 50.501s-11.5 29 -20.5 40s-19.667 19.667 -32 26s-25.833 9.5 -40.5 9.5c-24.667 0 -45.834 -10.833 -63.501 -32.5
s-26.5 -50.5 -26.5 -86.5c0 -35.333 8.83301 -63.333 26.5 -84s39.834 -31 66.501 -31c16 0 31.5 4.16699 46.5 12.5s27.167 20.666 36.5 36.999s14 35.833 14 58.5zM39.999 -140.001l0.000976562 780c0 53.333 26.667 80 80 80h660c53.333 0 80 -33.333 80 -100v-740
c0 -66.667 -26.667 -100 -80 -100h-660c-50.667 0 -77.334 26.667 -80.001 80zM120 -100.001c2.66699 -29.333 16.001 -42.667 40.001 -40h580c29.333 0 42.666 13.333 39.999 40v700c0 26.667 -13.333 40 -40 40h-580c-26.667 0 -40 -13.333 -40 -40v-700z" />
    <glyph glyph-name="colon" unicode=":" horiz-adv-x="900" 
d="M454 28c-16 0 -30.001 5.16895 -42.001 15.502s-18 25.166 -18 44.499c0 16.667 5.83301 30.834 17.5 42.501s25.834 17.5 42.501 17.5c16 0 30 -5.83301 42 -17.5s18 -25.834 18 -42.501c0 -18.667 -6 -33.334 -18 -44.001s-26 -16 -42 -16zM393.999 411.002
c0 18.667 6 33.168 18 43.501s26 15.5 42 15.5s30 -5.16699 42 -15.5s18 -24.833 18 -43.5c0 -14.667 -6.5 -28.334 -19.5 -41.001s-26.5 -19 -40.5 -19c-16 0 -30 6 -42 18s-18 26 -18 42zM39.999 -139.997l0.000976562 780c0 53.333 26.667 80 80 80h660
c53.333 0 80 -33.333 80 -100v-740c0 -66.667 -26.667 -100 -80 -100h-660c-50.667 0 -77.334 26.667 -80.001 80zM120 -99.9971c2.66699 -29.333 16.001 -42.667 40.001 -40h580c29.333 0 42.666 13.333 39.999 40v700c0 26.667 -13.333 40 -40 40h-580
c-26.667 0 -40 -13.333 -40 -40v-700z" />
    <glyph glyph-name="semicolon" unicode=";" horiz-adv-x="900" 
d="M450 28c-18 0 -33.333 5.33301 -46 16s-19 25.667 -19 45c0 16.667 6.16699 30.834 18.5 42.501s27.166 17.5 44.499 17.5c12 0 23.333 -3.5 34 -10.5s18.834 -17.333 24.501 -31s8.5 -30.167 8.5 -49.5c0 -26.667 -5.5 -51.334 -16.5 -74.001
s-24.5 -40.834 -40.5 -54.501s-30.667 -20.5 -44 -20.5c-8 0 -14.5 2.83301 -19.5 8.5s-7.5 11.834 -7.5 18.501c0 11.333 5.33301 20 16 26c31.333 17.333 47 39.333 47 66zM395 412c0 18.667 5.83105 33.166 17.498 43.499s25.834 15.5 42.501 15.5
c16 0 29.833 -5.16699 41.5 -15.5s17.5 -24.833 17.5 -43.5c0 -15.333 -6 -29.166 -18 -41.499s-25.667 -18.5 -41 -18.5c-10.667 0 -20.667 2.66699 -30 8s-16.666 12.333 -21.999 21s-8 19 -8 31zM39.998 -140.001l0.000976562 780c0 53.333 26.667 80 80 80h660
c53.333 0 80 -33.333 80 -100v-740c0 -66.667 -26.667 -100 -80 -100h-660c-50.667 0 -77.334 26.667 -80.001 80zM119.999 -100.001c2.66699 -29.333 16.001 -42.667 40.001 -40h580c29.333 0 42.666 13.333 39.999 40v700c0 26.667 -13.333 40 -40 40h-580
c-26.667 0 -40 -13.333 -40 -40v-700z" />
    <glyph glyph-name="less" unicode="&#x3c;" horiz-adv-x="900" 
d="M245 200c-16.667 12 -26.334 27.333 -29.001 46c2.66699 18.667 12.334 35 29.001 49l329 250c30.667 16.667 58 13 82 -11c18.667 -29.333 18.667 -55.333 0 -78l-290 -209l290 -193c18.667 -21.333 18.667 -45.333 0 -72c-24 -26.667 -51.333 -32 -82 -16zM40 -140
l0.000976562 780c0 53.333 26.667 80 80 80h660c53.333 0 80 -33.333 80 -100v-740c0 -66.667 -26.667 -100 -80 -100h-660c-50.667 0 -77.334 26.667 -80.001 80zM120.001 -100c2.66699 -29.333 16.001 -42.667 40.001 -40h580c29.333 0 42.666 13.333 39.999 40v700
c0 26.667 -13.333 40 -40 40h-580c-26.667 0 -40 -13.333 -40 -40v-700z" />
    <glyph glyph-name="equal" unicode="=" horiz-adv-x="900" 
d="M643 116l-381 -0.000976562c-30.667 2.66699 -46 20 -46 52s15.333 49.333 46 52h381c30 -2.66699 45 -20 45 -52c0 -29.333 -15 -46.666 -45 -51.999zM643 291.999h-381c-30.667 8 -46 25.333 -46 52c0 29.333 15.333 47 46 53h381c30 -3.33301 45 -19.666 45 -48.999
c0 -34.667 -15 -53.334 -45 -56.001zM40 -140.001l0.000976562 780c0 53.333 26.667 80 80 80h660c53.333 0 80 -33.333 80 -100v-740c0 -66.667 -26.667 -100 -80 -100h-660c-50.667 0 -77.334 26.667 -80.001 80zM120.001 -100.001
c2.66699 -29.333 16.001 -42.667 40.001 -40h580c29.333 0 42.666 13.333 39.999 40v700c0 26.667 -13.333 40 -40 40h-580c-26.667 0 -40 -13.333 -40 -40v-700z" />
    <glyph glyph-name="greater" unicode="&#x3e;" horiz-adv-x="900" 
d="M655 200l-329 -234c-30.667 -16 -58 -10.667 -82 16c-18.667 26.667 -18.667 50.667 0 72l290 193l-290 209c-18.667 22.667 -18.667 48.667 0 78c24 24 51.333 27.667 82 11l329 -250c16.667 -14 26.334 -30.333 29.001 -49c-2.66699 -18.667 -12.334 -34 -29.001 -46z
M40 -140l0.000976562 780c0 53.333 26.667 80 80 80h660c53.333 0 80 -33.333 80 -100v-740c0 -66.667 -26.667 -100 -80 -100h-660c-50.667 0 -77.334 26.667 -80.001 80zM120.001 -100c2.66699 -29.333 16.001 -42.667 40.001 -40h580c29.333 0 42.666 13.333 39.999 40
v700c0 26.667 -13.333 40 -40 40h-580c-26.667 0 -40 -13.333 -40 -40v-700z" />
    <glyph glyph-name="question" unicode="?" horiz-adv-x="900" 
d="M250 438c0 25.333 8.16992 51.0049 24.5029 77.0049s40.166 47.5 71.499 64.5s67.333 25.5 108 25.5c38.667 0 72.834 -7 102.501 -21s52.667 -33.333 69 -58s24.5 -51.334 24.5 -80.001c0 -23.333 -4.66699 -43.5 -14 -60.5s-20.333 -31.667 -33 -44
s-35.667 -32.833 -69 -61.5c-8.66699 -8.66699 -15.667 -16 -21 -22s-9.33301 -11.667 -12 -17s-4.83398 -10.5 -6.50098 -15.5s-3.83398 -14.167 -6.50098 -27.5c-5.33301 -28 -21 -42 -47 -42c-14 0 -25.667 4.5 -35 13.5s-14 22.833 -14 41.5c0 22 3.5 41.167 10.5 57.5
s16.167 30.666 27.5 42.999s26.333 26.833 45 43.5c17.333 15.333 29.833 26.666 37.5 33.999s14 15.666 19 24.999s7.5 19.666 7.5 30.999c0 21.333 -7.83301 39.333 -23.5 54s-36.167 22 -61.5 22c-28.667 0 -49.834 -7.5 -63.501 -22.5s-25.5 -36.833 -35.5 -65.5
c-8.66699 -30 -26 -45 -52 -45c-14.667 0 -27.167 5.16699 -37.5 15.5s-15.5 21.833 -15.5 34.5zM446.003 1.00488c-16.667 0 -31 5.16699 -43 15.5s-18 24.833 -18 43.5c0 17.333 5.83301 31.666 17.5 42.999s26.167 17 43.5 17c16 0 29.667 -5.66699 41 -17
s17 -25.666 17 -42.999c0 -18.667 -6 -33.167 -18 -43.5s-25.333 -15.5 -40 -15.5zM40.0029 -139.995l0.000976562 780c0 53.333 26.667 80 80 80h660c53.333 0 80 -33.333 80 -100v-740c0 -66.667 -26.667 -100 -80 -100h-660c-50.667 0 -77.334 26.667 -80.001 80z
M120.004 -99.9951c2.66699 -29.333 16.001 -42.667 40.001 -40h580c29.333 0 42.666 13.333 39.999 40v700c0 26.667 -13.333 40 -40 40h-580c-26.667 0 -40 -13.333 -40 -40v-700z" />
    <glyph glyph-name="at" unicode="@" horiz-adv-x="1024" 
d="M592 411l10.9971 36.001c6 9.33301 10.333 15 13 17s13.334 4.33301 32.001 7c18.667 -5.33301 29.667 -11.333 33 -18s5.66602 -18.667 6.99902 -36l-45 -230c-4 -16.667 -6 -27.667 -6 -33c0 -6 1.5 -10.667 4.5 -14s6.5 -5 10.5 -5c13.333 0 30.5 8.83301 51.5 26.5
s39.333 41.334 55 71.001s23.5 61.834 23.5 96.501c0 30 -5.66699 58 -17 84s-27.5 48.833 -48.5 68.5s-47.167 34.834 -78.5 45.501s-66.666 16 -105.999 16s-75.833 -5.16699 -109.5 -15.5s-63.167 -25.5 -88.5 -45.5s-46.666 -44 -63.999 -72
c-14.667 -25.333 -26 -53.333 -34 -84s-12 -61.667 -12 -93c0 -42 8.5 -80.667 25.5 -116s41.5 -64.833 73.5 -88.5s70.833 -40.5 116.5 -50.5s96.834 -12 153.501 -6c46 5.33301 84.833 15.666 116.5 30.999s58.5 36.666 80.5 63.999c25.333 29.333 48 38.666 68 27.999
c12 -10.667 14.333 -24 7 -40c-10.667 -18 -26.167 -37.333 -46.5 -58s-44.333 -38 -72 -52s-58.667 -24.833 -93 -32.5s-71.833 -11.5 -112.5 -11.5c-60 0 -114.333 8.16699 -163 24.5s-89.667 39.166 -123 68.499s-58.333 64.833 -75 106.5s-25 87.5 -25 137.5
c0 52.667 8.66699 101.667 26 147s42.5 84.833 75.5 118.5s73.333 60 121 79s99.834 28.5 156.501 28.5c46.667 0 89.5 -6.83301 128.5 -20.5s72.5 -33.334 100.5 -59.001s49.167 -56 63.5 -91s21.5 -73.833 21.5 -116.5c0 -33.333 -5.83301 -65.5 -17.5 -96.5
s-28.5 -59.333 -50.5 -85s-47.833 -45.834 -77.5 -60.501s-61.834 -22 -96.501 -22c-20.667 0 -36.5 3.5 -47.5 10.5s-18.167 17.833 -21.5 32.5c-21.333 -21.333 -45.833 -34.666 -73.5 -39.999s-54.667 -2.83301 -81 7.5s-47.5 28.333 -63.5 54s-24 57.167 -24 94.5
c0 38 8.33301 75.833 25 113.5s40.5 68.334 71.5 92.001s65.5 35.5 103.5 35.5c44 0 76.333 -16.333 97 -49zM389.997 219.001c0 -29.333 6.16797 -51.835 18.501 -67.502s28.5 -23.5 48.5 -23.5c23.333 0 43.833 9.16699 61.5 27.5s31 41.5 40 69.5s13.5 55.333 13.5 82
c0 12.667 -1.66699 24.334 -5 35.001s-7.83301 19.834 -13.5 27.501s-12.834 13.5 -21.501 17.5s-18.334 6 -29.001 6c-21.333 0 -40.666 -8.33301 -57.999 -25s-30.833 -38.5 -40.5 -65.5s-14.5 -54.833 -14.5 -83.5zM39.998 -140.001l0.000976562 780
c0 53.333 26.667 80 80 80h780c53.333 0 80 -33.333 80 -100v-740c0 -66.667 -26.667 -100 -80 -100h-780c-50.667 0 -77.334 26.667 -80.001 80zM119.999 -100.001c2.66699 -29.333 16.001 -42.667 40.001 -40h700c29.333 0 42.666 13.333 39.999 40v700
c0 26.667 -13.333 40 -40 40h-700c-26.667 0 -40 -13.333 -40 -40v-700z" />
    <glyph glyph-name="A" unicode="A" horiz-adv-x="1024" 
d="M657 30l-28.001 74.002h-237l-28 -76c-11.333 -29.333 -20.833 -49 -28.5 -59s-20.5 -15 -38.5 -15c-14.667 0 -27.834 5.33301 -39.501 16s-17.5 23 -17.5 37c0 8 1.33301 16.167 4 24.5s7.33398 20.5 14.001 36.5l150 380l15 39c6 15.333 12.333 28 19 38
s15.667 18.167 27 24.5s25 9.5 41 9.5s29.667 -3.16699 41 -9.5s20.333 -14.333 27 -24s12.334 -20.334 17.001 -32.001s10.334 -26.834 17.001 -45.501l154 -377c12 -28.667 18 -49.667 18 -63s-5.66699 -25.666 -17 -36.999s-25 -17 -41 -17
c-9.33301 0 -17.333 1.66699 -24 5s-12.334 7.66602 -17.001 12.999s-9.5 14 -14.5 26zM422.999 192.002h174l-88 242zM39.999 -139.998l0.000976562 780c0 53.333 26.667 80 80 80h780c53.333 0 80 -33.333 80 -100v-740c0 -66.667 -26.667 -100 -80 -100h-780
c-50.667 0 -77.334 26.667 -80.001 80zM120 -99.998c2.66699 -29.333 16.001 -42.667 40.001 -40h700c29.333 0 42.666 13.333 39.999 40v700c0 26.667 -13.333 40 -40 40h-700c-26.667 0 -40 -13.333 -40 -40v-700z" />
    <glyph glyph-name="B" unicode="B" horiz-adv-x="1024" 
d="M520 -36l-179.001 0.000976562c-26 0 -44.5 5.66699 -55.5 17s-16.5 29.666 -16.5 54.999v440c0 26 5.66699 44.667 17 56s29.666 17 54.999 17h189c28 0 52.333 -1.66699 73 -5s39 -10 55 -20c14 -8 26.333 -18.5 37 -31.5s18.834 -27 24.501 -42s8.5 -31.167 8.5 -48.5
c0 -58.667 -29.333 -101.667 -88 -129c77.333 -24 116 -71.333 116 -142c0 -33.333 -8.5 -63 -25.5 -89s-39.833 -45.333 -68.5 -58c-17.333 -8 -37.666 -13.333 -60.999 -16s-50.333 -4 -81 -4zM511.999 224.001l-124 0.000976562v-172h127c80 0 120 29.333 120 88
c0 29.333 -10.5 50.666 -31.5 63.999s-51.5 20 -91.5 20zM387.999 460.002v-152h108c29.333 0 52 2.83301 68 8.5s28.333 16.167 37 31.5c7.33301 11.333 11 24 11 38c0 30 -10.667 49.833 -32 59.5s-53.333 14.5 -96 14.5h-96zM39.999 -139.998l0.000976562 780
c0 53.333 26.667 80 80 80h780c53.333 0 80 -33.333 80 -100v-740c0 -66.667 -26.667 -100 -80 -100h-780c-50.667 0 -77.334 26.667 -80.001 80zM120 -99.998c2.66699 -29.333 16.001 -42.667 40.001 -40h700c29.333 0 42.666 13.333 39.999 40v700
c0 26.667 -13.333 40 -40 40h-700c-26.667 0 -40 -13.333 -40 -40v-700z" />
    <glyph glyph-name="C" unicode="C" horiz-adv-x="1024" 
d="M773 148c0 -18.667 -4.49707 -38.666 -13.4971 -59.999s-23.333 -42.666 -43 -63.999s-44.834 -38.333 -75.501 -51s-66.667 -19 -108 -19c-30 0 -57.667 2.83301 -83 8.5s-48.333 14.667 -69 27s-39.667 28.833 -57 49.5c-16 18 -29.333 38.5 -40 61.5
s-18.667 47.333 -24 73s-8 53.167 -8 82.5c0 46.667 6.66699 88.667 20 126s32.833 69.166 58.5 95.499s55.667 46.5 90 60.5s70.833 21 109.5 21c47.333 0 89.5 -9.5 126.5 -28.5s65.5 -42.333 85.5 -70s30 -54.167 30 -79.5c0 -13.333 -4.83301 -25.166 -14.5 -35.499
s-21.167 -15.5 -34.5 -15.5c-15.333 0 -26.833 3.66699 -34.5 11s-16.167 19.666 -25.5 36.999c-15.333 28.667 -33.5 50.167 -54.5 64.5s-46.833 21.5 -77.5 21.5c-48 0 -86.5 -18.5 -115.5 -55.5s-43.5 -89.167 -43.5 -156.5c0 -45.333 6.33301 -83.333 19 -114
s30.667 -53.334 54 -68.001s50.666 -22 81.999 -22c34 0 62.833 8.5 86.5 25.5s41.5 41.833 53.5 74.5c5.33301 15.333 11.666 27.833 18.999 37.5s19.333 14.5 36 14.5c14 0 26 -4.83301 36 -14.5s15 -22.167 15 -37.5zM40.0029 -139.999l0.000976562 780
c0 53.333 26.667 80 80 80h780c53.333 0 80 -33.333 80 -100v-740c0 -66.667 -26.667 -100 -80 -100h-780c-50.667 0 -77.334 26.667 -80.001 80zM120.004 -99.999c2.66699 -29.333 16.001 -42.667 40.001 -40h700c29.333 0 42.666 13.333 39.999 40v700
c0 26.667 -13.333 40 -40 40h-700c-26.667 0 -40 -13.333 -40 -40v-700z" />
    <glyph glyph-name="D" unicode="D" horiz-adv-x="1024" 
d="M335 549l154 0.000976562c40 0 74.5 -3.66699 103.5 -11s55.167 -21.333 78.5 -42c60.667 -52.667 91 -132.334 91 -239.001c0 -34.667 -3 -66.5 -9 -95.5s-15.5 -55.167 -28.5 -78.5s-29.167 -44.333 -48.5 -63c-16 -13.333 -33.333 -24.333 -52 -33
s-38.667 -14.667 -60 -18s-45.333 -5 -72 -5h-155c-22 0 -38.333 3.16699 -49 9.5s-17.667 15.5 -21 27.5s-5 27.333 -5 46v429c0 26 5.66699 44.667 17 56s30 17 56 17zM380 455.001l0.000976562 -396.999h91c19.333 0 34.5 0.5 45.5 1.5s22.5 3.66699 34.5 8
s22.333 10.166 31 17.499c40 34 60 91.667 60 173c0 58 -8.83301 101.5 -26.5 130.5s-39.334 47.333 -65.001 55s-56.167 11.5 -91.5 11.5h-79zM40.001 -139.998l0.000976562 780c0 53.333 26.667 80 80 80h780c53.333 0 80 -33.333 80 -100v-740
c0 -66.667 -26.667 -100 -80 -100h-780c-50.667 0 -77.334 26.667 -80.001 80zM120.002 -99.998c2.66699 -29.333 16.001 -42.667 40.001 -40h700c29.333 0 42.666 13.333 39.999 40v700c0 26.667 -13.333 40 -40 40h-700c-26.667 0 -40 -13.333 -40 -40v-700z" />
    <glyph glyph-name="E" unicode="E" horiz-adv-x="1024" 
d="M672 457l-266.999 0.00195312v-144h246c18 0 31.5 -4 40.5 -12s13.5 -18.667 13.5 -32c0 -12.667 -4.33301 -23.334 -13 -32.001s-22.334 -13 -41.001 -13h-246v-166h276c18.667 0 32.834 -4.33301 42.501 -13s14.5 -20.334 14.5 -35.001
c0 -14 -4.83301 -25.167 -14.5 -33.5s-23.834 -12.5 -42.501 -12.5h-321c-26.667 0 -45.5 5.66699 -56.5 17s-16.5 29.666 -16.5 54.999v440c0 17.333 2.5 31.333 7.5 42s12.833 18.5 23.5 23.5s24.667 7.5 42 7.5h312c18.667 0 32.667 -4.16699 42 -12.5
s14 -19.166 14 -32.499c0 -14 -4.66699 -25.333 -14 -34s-23.333 -13 -42 -13zM40.001 -139.998l0.000976562 780c0 53.333 26.667 80 80 80h780c53.333 0 80 -33.333 80 -100v-740c0 -66.667 -26.667 -100 -80 -100h-780c-50.667 0 -77.334 26.667 -80.001 80z
M120.002 -99.998c2.66699 -29.333 16.001 -42.667 40.001 -40h700c29.333 0 42.666 13.333 39.999 40v700c0 26.667 -13.333 40 -40 40h-700c-26.667 0 -40 -13.333 -40 -40v-700z" />
    <glyph glyph-name="F" unicode="F" horiz-adv-x="1024" 
d="M660 462h-233.002v-150h195c18 0 31.5 -4 40.5 -12s13.5 -18.667 13.5 -32s-4.66699 -24 -14 -32s-22.666 -12 -39.999 -12h-195v-193c0 -24.667 -5.5 -42.834 -16.5 -54.501s-25.167 -17.5 -42.5 -17.5c-18 0 -32.5 5.83301 -43.5 17.5s-16.5 29.834 -16.5 54.501v450
c0 17.333 2.66699 31.333 8 42s13.333 18.5 24 23.5s24.334 7.5 41.001 7.5h279c18.667 0 32.667 -4.33301 42 -13s14 -19.667 14 -33s-4.66699 -24.333 -14 -33s-23.333 -13 -42 -13zM39.998 -140l0.000976562 780c0 53.333 26.667 80 80 80h780
c53.333 0 80 -33.333 80 -100v-740c0 -66.667 -26.667 -100 -80 -100h-780c-50.667 0 -77.334 26.667 -80.001 80zM119.999 -100c2.66699 -29.333 16.001 -42.667 40.001 -40h700c29.333 0 42.666 13.333 39.999 40v700c0 26.667 -13.333 40 -40 40h-700
c-26.667 0 -40 -13.333 -40 -40v-700z" />
    <glyph glyph-name="G" unicode="G" horiz-adv-x="1024" 
d="M792 202v-112.996c0 -14.667 -1.5 -26.5 -4.5 -35.5s-8.33301 -17 -16 -24s-17.834 -14.167 -30.501 -21.5c-35.333 -18.667 -69.5 -32.334 -102.5 -41.001s-68.5 -13 -106.5 -13c-45.333 0 -86.5 6.83301 -123.5 20.5s-68.5 33.667 -94.5 60s-46 58.333 -60 96
s-21 79.5 -21 125.5c0 45.333 6.83301 87 20.5 125s33.667 70.167 60 96.5s58.5 46.5 96.5 60.5s80.667 21 128 21c39.333 0 74.166 -5.16699 104.499 -15.5s55 -23.5 74 -39.5s33.333 -33 43 -51s14.5 -34 14.5 -48c0 -14.667 -5.66699 -27.334 -17 -38.001
s-24.666 -16 -39.999 -16c-8.66699 0 -16.834 2 -24.501 6s-14.167 9.66699 -19.5 17c-14.667 22.667 -27.167 40 -37.5 52s-24 22 -41 30s-38.833 12 -65.5 12c-27.333 0 -51.666 -4.83301 -72.999 -14.5s-39.666 -23.5 -54.999 -41.5s-27.166 -40 -35.499 -66
s-12.5 -55 -12.5 -87c0 -68.667 15.833 -121.5 47.5 -158.5s75.5 -55.5 131.5 -55.5c27.333 0 53.166 3.66699 77.499 11s48.833 17.666 73.5 30.999v95h-92c-22 0 -38.667 3.33301 -50 10s-17 18 -17 34c0 13.333 4.66699 24.166 14 32.499s22 12.5 38 12.5h136
c16 0 29.833 -1.5 41.5 -4.5s21 -9.5 28 -19.5s10.5 -25 10.5 -45zM40 -139.996l0.000976562 780c0 53.333 26.667 80 80 80h780c53.333 0 80 -33.333 80 -100v-740c0 -66.667 -26.667 -100 -80 -100h-780c-50.667 0 -77.334 26.667 -80.001 80zM120.001 -99.9961
c2.66699 -29.333 16.001 -42.667 40.001 -40h700c29.333 0 42.666 13.333 39.999 40v700c0 26.667 -13.333 40 -40 40h-700c-26.667 0 -40 -13.333 -40 -40v-700z" />
    <glyph glyph-name="H" unicode="H" horiz-adv-x="1024" 
d="M384 487l-0.00195312 -167.996h256v168c0 24 5.33301 42 16 54s25 18 43 18s32.5 -5.83301 43.5 -17.5s16.5 -29.834 16.5 -54.501v-461c0 -24.667 -5.66699 -42.834 -17 -54.501s-25.666 -17.5 -42.999 -17.5c-18 0 -32.333 6 -43 18s-16 30 -16 54v197h-256v-197
c0 -24.667 -5.5 -42.834 -16.5 -54.501s-25.5 -17.5 -43.5 -17.5c-17.333 0 -31.333 6 -42 18s-16 30 -16 54v461c0 24 5.16699 42 15.5 54s24.5 18 42.5 18c18.667 0 33.334 -5.83301 44.001 -17.5s16 -29.834 16 -54.501zM39.998 -139.996l0.000976562 780
c0 53.333 26.667 80 80 80h780c53.333 0 80 -33.333 80 -100v-740c0 -66.667 -26.667 -100 -80 -100h-780c-50.667 0 -77.334 26.667 -80.001 80zM119.999 -99.9961c2.66699 -29.333 16.001 -42.667 40.001 -40h700c29.333 0 42.666 13.333 39.999 40v700
c0 26.667 -13.333 40 -40 40h-700c-26.667 0 -40 -13.333 -40 -40v-700z" />
    <glyph glyph-name="I" unicode="I" horiz-adv-x="1024" 
d="M453 26v461.002c0 24 5.5 42 16.5 54s25.167 18 42.5 18s31.5 -5.83301 42.5 -17.5s16.5 -29.834 16.5 -54.501v-461c0 -24.667 -5.5 -42.834 -16.5 -54.501s-25.167 -17.5 -42.5 -17.5s-31.5 6 -42.5 18s-16.5 30 -16.5 54zM40 -139.998l0.000976562 780
c0 53.333 26.667 80 80 80h780c53.333 0 80 -33.333 80 -100v-740c0 -66.667 -26.667 -100 -80 -100h-780c-50.667 0 -77.334 26.667 -80.001 80zM120.001 -99.998c2.66699 -29.333 16.001 -42.667 40.001 -40h700c29.333 0 42.666 13.333 39.999 40v700
c0 26.667 -13.333 40 -40 40h-700c-26.667 0 -40 -13.333 -40 -40v-700z" />
    <glyph glyph-name="J" unicode="J" horiz-adv-x="1024" 
d="M707 487v-306.996c0 -26.667 -1.16699 -49.334 -3.5 -68.001s-7.5 -37.334 -15.5 -56.001c-13.333 -32 -35.333 -57 -66 -75s-67.667 -27 -111 -27c-40 0 -73.167 6.16699 -99.5 18.5s-47.833 32.5 -64.5 60.5c-8.66699 15.333 -15.667 32.666 -21 51.999
s-8 37.666 -8 54.999c0 18.667 5.16699 33 15.5 43s23.833 15 40.5 15c15.333 0 27 -4.5 35 -13.5s14.333 -23.167 19 -42.5c4.66699 -20.667 9.16699 -37.167 13.5 -49.5s11.833 -22.833 22.5 -31.5s26 -13 46 -13c52 0 78 38.667 78 116v323c0 24 5.33301 42 16 54
s25 18 43 18s32.5 -6 43.5 -18s16.5 -30 16.5 -54zM40 -139.996l0.000976562 780c0 53.333 26.667 80 80 80h780c53.333 0 80 -33.333 80 -100v-740c0 -66.667 -26.667 -100 -80 -100h-780c-50.667 0 -77.334 26.667 -80.001 80zM120.001 -99.9961
c2.66699 -29.333 16.001 -42.667 40.001 -40h700c29.333 0 42.666 13.333 39.999 40v700c0 26.667 -13.333 40 -40 40h-700c-26.667 0 -40 -13.333 -40 -40v-700z" />
    <glyph glyph-name="K" unicode="K" horiz-adv-x="1024" 
d="M381 487l0.000976562 -205.999l233 243c11.333 12 20.833 20.833 28.5 26.5s18.167 8.5 31.5 8.5c17.333 0 31.166 -5 41.499 -15s15.5 -22 15.5 -36c0 -18 -9 -35.333 -27 -52l-144 -137l166 -238c12 -16.667 20.833 -31 26.5 -43s8.5 -24 8.5 -36
c0 -13.333 -5 -24.666 -15 -33.999s-24 -14 -42 -14c-16 0 -29.333 3.5 -40 10.5s-19.5 16.333 -26.5 28l-19.5 31.5l-139 216l-98 -93v-121c0 -24.667 -5.5 -42.834 -16.5 -54.501s-25.5 -17.5 -43.5 -17.5c-10 0 -19.667 2.5 -29 7.5s-16.333 12.167 -21 21.5
c-4 7.33301 -6.33301 16 -7 26s-1 24.333 -1 43v435c0 24 5.16699 42 15.5 54s24.5 18 42.5 18s32.5 -5.83301 43.5 -17.5s16.5 -29.834 16.5 -54.501zM40.001 -139.999l0.000976562 780c0 53.333 26.667 80 80 80h780c53.333 0 80 -33.333 80 -100v-740
c0 -66.667 -26.667 -100 -80 -100h-780c-50.667 0 -77.334 26.667 -80.001 80zM120.002 -99.999c2.66699 -29.333 16.001 -42.667 40.001 -40h700c29.333 0 42.666 13.333 39.999 40v700c0 26.667 -13.333 40 -40 40h-700c-26.667 0 -40 -13.333 -40 -40v-700z" />
    <glyph glyph-name="L" unicode="L" horiz-adv-x="1024" 
d="M421 482l0.000976562 -425.998h240c19.333 0 34.166 -4.66699 44.499 -14s15.5 -21 15.5 -35c0 -14.667 -5 -26.334 -15 -35.001s-25 -13 -45 -13h-285c-26.667 0 -45.5 5.66699 -56.5 17s-16.5 30 -16.5 56v450c0 24 5.33301 42 16 54s24.667 18 42 18
c18 0 32.5 -5.83301 43.5 -17.5s16.5 -29.834 16.5 -54.501zM40.001 -139.998l0.000976562 780c0 53.333 26.667 80 80 80h780c53.333 0 80 -33.333 80 -100v-740c0 -66.667 -26.667 -100 -80 -100h-780c-50.667 0 -77.334 26.667 -80.001 80zM120.002 -99.998
c2.66699 -29.333 16.001 -42.667 40.001 -40h700c29.333 0 42.666 13.333 39.999 40v700c0 26.667 -13.333 40 -40 40h-700c-26.667 0 -40 -13.333 -40 -40v-700z" />
    <glyph glyph-name="M" unicode="M" horiz-adv-x="1024" 
d="M433 56l-93.0039 373.001v-404c0 -22 -5.16699 -38.5 -15.5 -49.5s-23.833 -16.5 -40.5 -16.5c-16 0 -29 5.5 -39 16.5s-15 27.5 -15 49.5v463c0 26 6.66699 43.5 20 52.5s31.333 13.5 54 13.5h37c22 0 38 -2 48 -6s17.5 -11.167 22.5 -21.5s10.5 -27.166 16.5 -50.499
l84 -321l85 321c6.66699 23.333 12.334 40.166 17.001 50.499s12 17.5 22 21.5s26 6 48 6h37c22.667 0 40.667 -4.5 54 -13.5s20 -26.5 20 -52.5v-463c0 -22 -5 -38.5 -15 -49.5s-23.333 -16.5 -40 -16.5c-16 0 -29 5.5 -39 16.5s-15 27.5 -15 49.5v404l-94 -373
c-6 -24 -11 -41.667 -15 -53s-11.167 -21.5 -21.5 -30.5s-24.833 -13.5 -43.5 -13.5c-13.333 0 -24.666 2.83301 -33.999 8.5s-16.666 13.167 -21.999 22.5s-9.66602 19.666 -12.999 30.999zM39.9961 -139.999l0.000976562 780c0 53.333 26.667 80 80 80h780
c53.333 0 80 -33.333 80 -100v-740c0 -66.667 -26.667 -100 -80 -100h-780c-50.667 0 -77.334 26.667 -80.001 80zM119.997 -99.999c2.66699 -29.333 16.001 -42.667 40.001 -40h700c29.333 0 42.666 13.333 39.999 40v700c0 26.667 -13.333 40 -40 40h-700
c-26.667 0 -40 -13.333 -40 -40v-700z" />
    <glyph glyph-name="N" unicode="N" horiz-adv-x="1024" 
d="M420 488l227.996 -345v348c0 22.667 4.83301 39.667 14.5 51s22.834 17 39.501 17c17.333 0 30.833 -5.66699 40.5 -17s14.5 -28.333 14.5 -51v-460c0 -51.333 -21.333 -77 -64 -77c-10.667 0 -20.167 1.5 -28.5 4.5s-16.333 7.83301 -24 14.5s-14.667 14.334 -21 23.001
l-19.5 28l-221 340v-343c0 -22 -5.16699 -38.667 -15.5 -50s-23.833 -17 -40.5 -17s-30 5.66699 -40 17s-15 28 -15 50v452c0 19.333 2 34.333 6 45c4.66699 12 12.834 21.833 24.501 29.5s24.5 11.5 38.5 11.5c10.667 0 19.834 -1.83301 27.501 -5.5
s14.334 -8.33398 20.001 -14.001s11.5 -13.167 17.5 -22.5zM39.9961 -140l0.000976562 780c0 53.333 26.667 80 80 80h780c53.333 0 80 -33.333 80 -100v-740c0 -66.667 -26.667 -100 -80 -100h-780c-50.667 0 -77.334 26.667 -80.001 80zM119.997 -100
c2.66699 -29.333 16.001 -42.667 40.001 -40h700c29.333 0 42.666 13.333 39.999 40v700c0 26.667 -13.333 40 -40 40h-700c-26.667 0 -40 -13.333 -40 -40v-700z" />
    <glyph glyph-name="O" unicode="O" horiz-adv-x="1024" 
d="M510 559c60 0 111.999 -12.332 155.999 -36.999s77.167 -59.834 99.5 -105.501s33.5 -99.167 33.5 -160.5c0 -44.667 -6.16699 -85.5 -18.5 -122.5s-30.833 -69.167 -55.5 -96.5s-54.834 -48 -90.501 -62s-76.5 -21 -122.5 -21c-45.333 0 -86.166 7.33301 -122.499 22
s-66.666 35.5 -90.999 62.5s-42.666 59.333 -54.999 97s-18.5 78.167 -18.5 121.5c0 45.333 6.5 86.833 19.5 124.5s31.667 69.667 56 96s54.166 46.5 89.499 60.5s75.333 21 120 21zM677.999 257.001c0 43.333 -7.00293 80.668 -21.0029 112.001s-33.667 55 -59 71
s-54.666 24 -87.999 24c-23.333 0 -45.166 -4.33301 -65.499 -13s-37.666 -21.5 -51.999 -38.5s-25.833 -38.833 -34.5 -65.5s-13 -56.667 -13 -90c0 -32.667 4.33301 -62.334 13 -89.001s20.5 -49 35.5 -67s32.5 -31.333 52.5 -40s42 -13 66 -13
c29.333 0 56.833 7.5 82.5 22.5s46 38.333 61 70s22.5 70.5 22.5 116.5zM39.9961 -139.997l0.000976562 780c0 53.333 26.667 80 80 80h780c53.333 0 80 -33.333 80 -100v-740c0 -66.667 -26.667 -100 -80 -100h-780c-50.667 0 -77.334 26.667 -80.001 80zM119.997 -99.9971
c2.66699 -29.333 16.001 -42.667 40.001 -40h700c29.333 0 42.666 13.333 39.999 40v700c0 26.667 -13.333 40 -40 40h-700c-26.667 0 -40 -13.333 -40 -40v-700z" />
    <glyph glyph-name="P" unicode="P" horiz-adv-x="1024" 
d="M516 196l-108 -0.00195312v-165c0 -24 -5.66699 -42 -17 -54s-25.666 -18 -42.999 -18s-31.5 6 -42.5 18s-16.5 29.667 -16.5 53v451c0 26 6 44.667 18 56s31 17 57 17h152c45.333 0 80 -3.33301 104 -10c24 -7.33301 44.667 -18.666 62 -33.999
s30.666 -34.166 39.999 -56.499s14 -47.5 14 -75.5c0 -60 -18.5 -105.333 -55.5 -136s-91.833 -46 -164.5 -46zM488 463.998h-79.999v-179h80c27.333 0 50.333 3 69 9s33 15.667 43 29s15 31 15 53c0 25.333 -7.66699 46.333 -23 63c-16.667 16.667 -51.334 25 -104.001 25z
M40.001 -140.002l0.000976562 780c0 53.333 26.667 80 80 80h780c53.333 0 80 -33.333 80 -100v-740c0 -66.667 -26.667 -100 -80 -100h-780c-50.667 0 -77.334 26.667 -80.001 80zM120.002 -100.002c2.66699 -29.333 16.001 -42.667 40.001 -40h700
c29.333 0 42.666 13.333 39.999 40v700c0 26.667 -13.333 40 -40 40h-700c-26.667 0 -40 -13.333 -40 -40v-700z" />
    <glyph glyph-name="Q" unicode="Q" horiz-adv-x="1024" 
d="M707 58c17.333 -12 36.334 -23.5 57.001 -34.5s34.334 -19.667 41.001 -26s10 -15.5 10 -27.5c0 -8.66699 -4 -17.167 -12 -25.5s-17.667 -12.5 -29 -12.5c-9.33301 0 -20.333 2.83301 -33 8.5s-27.834 14.167 -45.501 25.5l-57.5 38c-38.667 -18.667 -86 -28 -142 -28
c-45.333 0 -86 7.16699 -122 21.5s-66.333 35 -91 62s-43.167 59.333 -55.5 97s-18.5 78.5 -18.5 122.5c0 45.333 6.5 86.833 19.5 124.5s31.667 69.667 56 96s54.166 46.333 89.499 60s75.333 20.5 120 20.5c60 0 112 -12.167 156 -36.5s77.167 -59.333 99.5 -105
s33.5 -99.167 33.5 -160.5c0 -92 -25.333 -165.333 -76 -220zM614.001 123c16.667 18.667 28.8311 40.8369 36.498 66.5039s11.5 55.5 11.5 89.5c0 43.333 -7 80.666 -21 111.999s-33.667 55 -59 71s-54.666 24 -87.999 24c-23.333 0 -45.166 -4.33301 -65.499 -13
s-37.666 -21.667 -51.999 -39s-25.833 -39.333 -34.5 -66s-13 -56.334 -13 -89.001c0 -66.667 15.833 -118.334 47.5 -155.001s71.5 -55 119.5 -55c18.667 0 38.667 4.33301 60 13c-12.667 9.33301 -28.334 18.666 -47.001 27.999s-31.5 16.5 -38.5 21.5
s-10.5 12.167 -10.5 21.5c0 8 3.33301 15.167 10 21.5s14 9.5 22 9.5c24 0 64.667 -20.333 122 -61zM39.998 -139.997l0.000976562 780c0 53.333 26.667 80 80 80h780c53.333 0 80 -33.333 80 -100v-740c0 -66.667 -26.667 -100 -80 -100h-780
c-50.667 0 -77.334 26.667 -80.001 80zM119.999 -99.9971c2.66699 -29.333 16.001 -42.667 40.001 -40h700c29.333 0 42.666 13.333 39.999 40v700c0 26.667 -13.333 40 -40 40h-700c-26.667 0 -40 -13.333 -40 -40v-700z" />
    <glyph glyph-name="R" unicode="R" horiz-adv-x="1024" 
d="M428 219l-41 -0.00585938v-188c0 -25.333 -5.5 -43.666 -16.5 -54.999s-25.167 -17 -42.5 -17c-18.667 0 -33.334 6 -44.001 18s-16 30 -16 54v450c0 26 5.83301 44.667 17.5 56s30.167 17 55.5 17h192c26.667 0 49.5 -1.16699 68.5 -3.5s36.167 -7.16602 51.5 -14.499
c18 -7.33301 34.167 -18.166 48.5 -32.499s25.166 -31.166 32.499 -50.499s11 -39.666 11 -60.999c0 -43.333 -12.333 -78 -37 -104s-62 -44.333 -112 -55c21.333 -11.333 41.5 -27.833 60.5 -49.5s36 -45 51 -70s26.833 -47.333 35.5 -67s13 -33.167 13 -40.5
c0 -8 -2.66699 -15.667 -8 -23s-12.166 -13.166 -20.499 -17.499s-18.166 -6.5 -29.499 -6.5c-13.333 0 -24.5 3 -33.5 9s-16.667 13.833 -23 23.5l-26.5 42.5l-48 79c-17.333 28.667 -32.5 50.667 -45.5 66s-26.5 25.833 -40.5 31.5s-31.667 8.5 -53 8.5zM496 463.994h-109
v-160h106c28.667 0 52.667 2.33301 72 7s34 13 44 25s15 28.333 15 49c0 16 -4 30.333 -12 43s-19.333 22 -34 28c-14 5.33301 -41.333 8 -82 8zM40 -140.006l0.000976562 780c0 53.333 26.667 80 80 80h780c53.333 0 80 -33.333 80 -100v-740
c0 -66.667 -26.667 -100 -80 -100h-780c-50.667 0 -77.334 26.667 -80.001 80zM120.001 -100.006c2.66699 -29.333 16.001 -42.667 40.001 -40h700c29.333 0 42.666 13.333 39.999 40v700c0 26.667 -13.333 40 -40 40h-700c-26.667 0 -40 -13.333 -40 -40v-700z" />
    <glyph glyph-name="S" unicode="S" horiz-adv-x="1024" 
d="M745 140c0 -36 -9.16895 -68.1709 -27.502 -96.5039s-45.166 -50.333 -80.499 -66s-77 -23.5 -125 -23.5c-57.333 0 -104.666 10.667 -141.999 32c-26.667 16 -48.334 37 -65.001 63s-25 51.667 -25 77c0 14.667 5 27 15 37s22.667 15 38 15
c12.667 0 23.334 -4 32.001 -12s16 -19.667 22 -35c7.33301 -18.667 15.333 -34.334 24 -47.001s21 -23.167 37 -31.5s36.667 -12.5 62 -12.5c34.667 0 63 8.33301 85 25s33 37.334 33 62.001c0 19.333 -6 35 -18 47s-27.333 21.333 -46 28s-43.667 13.334 -75 20.001
c-42 10 -77.167 21.5 -105.5 34.5s-50.833 30.833 -67.5 53.5s-25 51 -25 85c0 32.667 8.83301 61.5 26.5 86.5s43.167 44.167 76.5 57.5s72.666 20 117.999 20c34.667 0 65.334 -4.5 92.001 -13.5s48.667 -20.833 66 -35.5s30 -30.167 38 -46.5s12 -32.166 12 -47.499
c0 -14 -5.16699 -26.833 -15.5 -38.5s-22.833 -17.5 -37.5 -17.5c-13.333 0 -23.666 3.5 -30.999 10.5s-15 18.167 -23 33.5c-10.667 22 -23.5 39.333 -38.5 52s-38.5 19 -70.5 19c-31.333 0 -56.333 -6.83301 -75 -20.5s-28 -29.834 -28 -48.501
c0 -12 3.16699 -22.167 9.5 -30.5s15.166 -15.666 26.499 -21.999s22.666 -11.166 33.999 -14.499s30 -8.33301 56 -15c32.667 -8 62.5 -16.667 89.5 -26s49.833 -20.5 68.5 -33.5s33.334 -29.667 44.001 -50s16 -45.166 16 -74.499zM39.998 -140.004l0.000976562 780
c0 53.333 26.667 80 80 80h780c53.333 0 80 -33.333 80 -100v-740c0 -66.667 -26.667 -100 -80 -100h-780c-50.667 0 -77.334 26.667 -80.001 80zM119.999 -100.004c2.66699 -29.333 16.001 -42.667 40.001 -40h700c29.333 0 42.666 13.333 39.999 40v700
c0 26.667 -13.333 40 -40 40h-700c-26.667 0 -40 -13.333 -40 -40v-700z" />
    <glyph glyph-name="T" unicode="T" horiz-adv-x="1024" 
d="M700 456h-128.999v-425c0 -24.667 -5.5 -42.834 -16.5 -54.501s-25.167 -17.5 -42.5 -17.5s-31.5 5.83301 -42.5 17.5s-16.5 29.834 -16.5 54.501v425h-129c-20.667 0 -35.834 4.5 -45.501 13.5s-14.5 20.5 -14.5 34.5c0 16 5 28.333 15 37s25 13 45 13h376
c20.667 0 36 -4.5 46 -13.5s15 -21.167 15 -36.5c0 -14 -5 -25.5 -15 -34.5s-25.333 -13.5 -46 -13.5zM40.001 -140l0.000976562 780c0 53.333 26.667 80 80 80h780c53.333 0 80 -33.333 80 -100v-740c0 -66.667 -26.667 -100 -80 -100h-780
c-50.667 0 -77.334 26.667 -80.001 80zM120.002 -100c2.66699 -29.333 16.001 -42.667 40.001 -40h700c29.333 0 42.666 13.333 39.999 40v700c0 26.667 -13.333 40 -40 40h-700c-26.667 0 -40 -13.333 -40 -40v-700z" />
    <glyph glyph-name="U" unicode="U" horiz-adv-x="1024" 
d="M266 206l-0.00390625 281c0 24 5.33301 42 16 54s24.667 18 42 18c18.667 0 33.334 -6 44.001 -18s16 -30 16 -54v-287c0 -33.333 3.83301 -61 11.5 -83s20.834 -39 39.501 -51s44.334 -18 77.001 -18c46.667 0 79.667 12.333 99 37s29 62 29 112v290
c0 24.667 5.33301 42.834 16 54.501s24.667 17.5 42 17.5c18 0 32.5 -5.83301 43.5 -17.5s16.5 -29.834 16.5 -54.501v-281c0 -46 -4.33301 -84.333 -13 -115s-25.667 -57.667 -51 -81c-21.333 -20 -46.166 -34.333 -74.499 -43s-61.5 -13 -99.5 -13
c-44 0 -82.333 4.83301 -115 14.5s-59.167 24.667 -79.5 45s-35.333 46.5 -45 78.5s-14.5 70 -14.5 114zM39.9961 -140l0.000976562 780c0 53.333 26.667 80 80 80h780c53.333 0 80 -33.333 80 -100v-740c0 -66.667 -26.667 -100 -80 -100h-780
c-50.667 0 -77.334 26.667 -80.001 80zM119.997 -100c2.66699 -29.333 16.001 -42.667 40.001 -40h700c29.333 0 42.666 13.333 39.999 40v700c0 26.667 -13.333 40 -40 40h-700c-26.667 0 -40 -13.333 -40 -40v-700z" />
    <glyph glyph-name="V" unicode="V" horiz-adv-x="1024" 
d="M382 481l131.999 -393.001l134 396c6.66699 20.667 11.667 35.167 15 43.5s9 15.666 17 21.999s19 9.5 33 9.5c10 0 19.333 -2.5 28 -7.5s15.5 -11.667 20.5 -20s7.5 -16.833 7.5 -25.5c0 -6 -0.833008 -12.5 -2.5 -19.5s-3.66699 -13.667 -6 -20l-7.5 -19.5l-141 -383
c-5.33301 -14.667 -10.666 -28.5 -15.999 -41.5s-11.333 -24.667 -18 -35s-15.334 -18.5 -26.001 -24.5s-24 -9 -40 -9s-29.5 3 -40.5 9s-19.833 14.167 -26.5 24.5s-12.5 22 -17.5 35l-15.5 41.5l-140 380c-2.66699 6.66699 -5.16699 13.334 -7.5 20.001
s-4.33301 13.834 -6 21.501s-2.5 14.167 -2.5 19.5c0 13.333 5.33301 25.666 16 36.999s24.334 17 41.001 17c20.667 0 35.167 -6.16699 43.5 -18.5s16.833 -32.166 25.5 -59.499zM39.999 -140.001l0.000976562 780c0 53.333 26.667 80 80 80h780
c53.333 0 80 -33.333 80 -100v-740c0 -66.667 -26.667 -100 -80 -100h-780c-50.667 0 -77.334 26.667 -80.001 80zM120 -100.001c2.66699 -29.333 16.001 -42.667 40.001 -40h700c29.333 0 42.666 13.333 39.999 40v700c0 26.667 -13.333 40 -40 40h-700
c-26.667 0 -40 -13.333 -40 -40v-700z" />
    <glyph glyph-name="W" unicode="W" horiz-adv-x="1024" 
d="M608 56l-96.001 351.002l-95 -351c-7.33301 -26.667 -13.166 -45.834 -17.499 -57.501s-12 -22 -23 -31s-25.5 -13.5 -43.5 -13.5c-14.667 0 -26.667 2.66699 -36 8s-17 13 -23 23s-10.833 21.833 -14.5 35.5l-10.5 38.5l-97 393c-6 23.333 -9 41 -9 53
c0 15.333 5.33301 28.166 16 38.499s24 15.5 40 15.5c21.333 0 35.666 -7 42.999 -21s14 -34 20 -60l77 -342l85 320c6.66699 24 12.5 42.5 17.5 55.5s13.333 24.167 25 33.5s26.834 14 45.501 14c20.667 0 36.5 -4.83301 47.5 -14.5s18.5 -20.167 22.5 -31.5
s10 -30.333 18 -57l86 -320l77 342c3.33301 17.333 6.83301 31.166 10.5 41.499s9.5 19.5 17.5 27.5s19.667 12 35 12s28.5 -5.16699 39.5 -15.5s16.5 -23.166 16.5 -38.499c0 -11.333 -3 -29 -9 -53l-97 -393c-7.33301 -26.667 -13.166 -46.334 -17.499 -59.001
s-11.833 -23.5 -22.5 -32.5s-25.334 -13.5 -44.001 -13.5s-33.334 4.33301 -44.001 13s-18.167 18.834 -22.5 30.501s-10.166 31.167 -17.499 58.5zM39.999 -139.998l0.000976562 780c0 53.333 26.667 80 80 80h780c53.333 0 80 -33.333 80 -100v-740
c0 -66.667 -26.667 -100 -80 -100h-780c-50.667 0 -77.334 26.667 -80.001 80zM120 -99.998c2.66699 -29.333 16.001 -42.667 40.001 -40h700c29.333 0 42.666 13.333 39.999 40v700c0 26.667 -13.333 40 -40 40h-700c-26.667 0 -40 -13.333 -40 -40v-700z" />
    <glyph glyph-name="X" unicode="X" horiz-adv-x="1024" 
d="M310 77l131 190.995l-110 171c-10.667 16.667 -18.5 30.834 -23.5 42.501s-7.5 23.167 -7.5 34.5c0 10.667 4.83301 20.5 14.5 29.5s21.834 13.5 36.501 13.5c16.667 0 29.667 -4.83301 39 -14.5s22 -27.834 38 -54.501l87 -142l94 142l19.5 31
c5.66699 8.66699 11 15.834 16 21.501s10.667 9.83398 17 12.501s13.833 4 22.5 4c14.667 0 26.667 -4.5 36 -13.5s14 -19.5 14 -31.5c0 -18 -10 -42.333 -30 -73l-116 -173l124 -191c11.333 -16.667 19.5 -30.5 24.5 -41.5s7.5 -21.5 7.5 -31.5
c0 -9.33301 -2.16699 -17.833 -6.5 -25.5s-10.666 -13.667 -18.999 -18s-17.833 -6.5 -28.5 -6.5c-11.333 0 -20.833 2.33301 -28.5 7s-13.834 10.334 -18.501 17.001l-27 40l-103 162l-109 -167c-8 -13.333 -14 -22.666 -18 -27.999s-8.5 -10.333 -13.5 -15
s-11 -8.5 -18 -11.5s-14.833 -4.5 -23.5 -4.5c-14.667 0 -26.834 4.33301 -36.501 13s-14.5 21.334 -14.5 38.001c0 20 10 44 30 72zM40 -140.005l0.000976562 780c0 53.333 26.667 80 80 80h780c53.333 0 80 -33.333 80 -100v-740c0 -66.667 -26.667 -100 -80 -100h-780
c-50.667 0 -77.334 26.667 -80.001 80zM120.001 -100.005c2.66699 -29.333 16.001 -42.667 40.001 -40h700c29.333 0 42.666 13.333 39.999 40v700c0 26.667 -13.333 40 -40 40h-700c-26.667 0 -40 -13.333 -40 -40v-700z" />
    <glyph glyph-name="Y" unicode="Y" horiz-adv-x="1024" 
d="M452 26l-0.00292969 186.003l-144 221c-12 20 -20.667 35.5 -26 46.5s-8 20.833 -8 29.5c0 13.333 5.33301 25 16 35s23.667 15 39 15c16 0 28.333 -4.5 37 -13.5s21.334 -27.5 38.001 -55.5l108 -178l112 178c6 11.333 11.333 20.666 16 27.999
s9.83398 14.166 15.501 20.499s11.834 11.333 18.501 15s14.667 5.5 24 5.5c14.667 0 27 -4.83301 37 -14.5s15 -20.834 15 -33.501c0 -10.667 -2.5 -21.167 -7.5 -31.5s-13.833 -24.833 -26.5 -43.5l-146 -224v-186c0 -24.667 -5.66699 -42.834 -17 -54.501
s-25.333 -17.5 -42 -17.5c-18 0 -32.333 5.83301 -43 17.5s-16 29.834 -16 54.501zM39.9971 -139.997l0.000976562 780c0 53.333 26.667 80 80 80h780c53.333 0 80 -33.333 80 -100v-740c0 -66.667 -26.667 -100 -80 -100h-780c-50.667 0 -77.334 26.667 -80.001 80z
M119.998 -99.9971c2.66699 -29.333 16.001 -42.667 40.001 -40h700c29.333 0 42.666 13.333 39.999 40v700c0 26.667 -13.333 40 -40 40h-700c-26.667 0 -40 -13.333 -40 -40v-700z" />
    <glyph glyph-name="Z" unicode="Z" horiz-adv-x="1024" 
d="M299 100l301 360.002h-259c-18 0 -31.5 4 -40.5 12s-13.5 18.667 -13.5 32s4.5 24.166 13.5 32.499s22.5 12.5 40.5 12.5h333c43.333 0 65 -20.333 65 -61c0 -18.667 -3.66699 -33.834 -11 -45.501s-22 -30.167 -44 -55.5l-280 -335h309c18.667 0 32.5 -3.66699 41.5 -11
s13.5 -18 13.5 -32s-4.5 -25 -13.5 -33s-22.833 -12 -41.5 -12h-380c-25.333 0 -44.5 5.66699 -57.5 17s-19.5 27 -19.5 47c0 6 1 11.833 3 17.5s4.66699 11 8 16s8.33301 11.333 15 19zM40 -139.998l0.000976562 780c0 53.333 26.667 80 80 80h780
c53.333 0 80 -33.333 80 -100v-740c0 -66.667 -26.667 -100 -80 -100h-780c-50.667 0 -77.334 26.667 -80.001 80zM120.001 -99.998c2.66699 -29.333 16.001 -42.667 40.001 -40h700c29.333 0 42.666 13.333 39.999 40v700c0 26.667 -13.333 40 -40 40h-700
c-26.667 0 -40 -13.333 -40 -40v-700z" />
    <glyph glyph-name="bracketleft" unicode="[" horiz-adv-x="900" 
d="M509 546l-66 -0.000976562v-579h66c34.667 0 52 -14.333 52 -43c0 -28 -17.333 -42 -52 -42h-99c-16 0 -29.333 2.66699 -40 8s-18.5 13.333 -23.5 24s-7.5 24.334 -7.5 41.001v603c0 25.333 5.66699 43.833 17 55.5s29.333 17.5 54 17.5h99
c17.333 0 30.333 -3.83301 39 -11.5s13 -18.167 13 -31.5c0 -28 -17.333 -42 -52 -42zM40 -140.001l0.000976562 780c0 53.333 26.667 80 80 80h660c53.333 0 80 -33.333 80 -100v-740c0 -66.667 -26.667 -100 -80 -100h-660c-50.667 0 -77.334 26.667 -80.001 80z
M120.001 -100.001c2.66699 -29.333 16.001 -42.667 40.001 -40h580c29.333 0 42.666 13.333 39.999 40v700c0 26.667 -13.333 40 -40 40h-580c-26.667 0 -40 -13.333 -40 -40v-700z" />
    <glyph glyph-name="backslash" unicode="\" horiz-adv-x="900" 
d="M310 181l90 -0.000976562v58h-90c-38 0 -57 12.333 -57 37c0 24 19 36 57 36h51l-120 188c-10 14.667 -16.333 25.167 -19 31.5s-4 13.5 -4 21.5c0 14 4.16699 25.167 12.5 33.5s19.166 12.5 32.499 12.5s24.333 -4.16699 33 -12.5s18.667 -21.5 30 -39.5l128 -203
l116 191l13 23.5c4.66699 8.33301 9.33398 15.333 14.001 21s10.334 10.334 17.001 14.001s14.667 5.5 24 5.5c13.333 0 24.166 -4 32.499 -12s12.5 -18 12.5 -30c0 -9.33301 -1.5 -17.833 -4.5 -25.5s-8.5 -17.5 -16.5 -29.5l-115 -190h51c37.333 0 56 -12 56 -36
c0 -24.667 -18.667 -37 -56 -37h-90v-58h90c37.333 0 56 -12.333 56 -37s-18.667 -37 -56 -37h-90v-32c0 -54 -18 -81 -54 -81s-54 27 -54 81v32h-90c-38 0 -57 12.333 -57 37s19 37 57 37zM40 -140.001l0.000976562 780c0 53.333 26.667 80 80 80h660
c53.333 0 80 -33.333 80 -100v-740c0 -66.667 -26.667 -100 -80 -100h-660c-50.667 0 -77.334 26.667 -80.001 80zM120.001 -100.001c2.66699 -29.333 16.001 -42.667 40.001 -40h580c29.333 0 42.666 13.333 39.999 40v700c0 26.667 -13.333 40 -40 40h-580
c-26.667 0 -40 -13.333 -40 -40v-700z" />
    <glyph glyph-name="bracketright" unicode="]" horiz-adv-x="900" 
d="M457 -33v578.998h-65c-17.333 0 -30.5 3.83301 -39.5 11.5s-13.5 17.834 -13.5 30.501c0 13.333 4.5 23.833 13.5 31.5s22.167 11.5 39.5 11.5h98c24 0 41.833 -5.83301 53.5 -17.5s17.5 -30.167 17.5 -55.5v-603c0 -25.333 -5.66699 -43.833 -17 -55.5
s-29.333 -17.5 -54 -17.5h-98c-17.333 0 -30.5 3.83301 -39.5 11.5s-13.5 17.834 -13.5 30.501c0 13.333 4.5 23.833 13.5 31.5s22.167 11.5 39.5 11.5h65zM40 -140.002l0.000976562 780c0 53.333 26.667 80 80 80h660c53.333 0 80 -33.333 80 -100v-740
c0 -66.667 -26.667 -100 -80 -100h-660c-50.667 0 -77.334 26.667 -80.001 80zM120.001 -100.002c2.66699 -29.333 16.001 -42.667 40.001 -40h580c29.333 0 42.666 13.333 39.999 40v700c0 26.667 -13.333 40 -40 40h-580c-26.667 0 -40 -13.333 -40 -40v-700z" />
    <glyph glyph-name="asciicircum" unicode="^" horiz-adv-x="900" 
d="M374 266c-52 -28 -84.667 -14.666 -98 40.001l135 279c27.333 26 56.333 26 87 0l126 -275c-5.33301 -54.667 -36 -69.334 -92 -44.001l-80 195zM40 -139.999l0.000976562 780c0 53.333 26.667 80 80 80h660c53.333 0 80 -33.333 80 -100v-740
c0 -66.667 -26.667 -100 -80 -100h-660c-50.667 0 -77.334 26.667 -80.001 80zM120.001 -99.999c2.66699 -29.333 16.001 -42.667 40.001 -40h580c29.333 0 42.666 13.333 39.999 40v700c0 26.667 -13.333 40 -40 40h-580c-26.667 0 -40 -13.333 -40 -40v-700z" />
    <glyph glyph-name="underscore" unicode="_" horiz-adv-x="900" 
d="M210 -60c-21.333 0 -34.666 13.333 -39.999 40c5.33301 26.667 18.666 40 39.999 40h480c21.333 0 34.666 -13.333 39.999 -40c-5.33301 -26.667 -18.666 -40 -39.999 -40h-480zM40 -140l0.000976562 780c0 53.333 26.667 80 80 80h660c53.333 0 80 -33.333 80 -100v-740
c0 -66.667 -26.667 -100 -80 -100h-660c-50.667 0 -77.334 26.667 -80.001 80zM120.001 -100c2.66699 -29.333 16.001 -42.667 40.001 -40h580c29.333 0 42.666 13.333 39.999 40v700c0 26.667 -13.333 40 -40 40h-580c-26.667 0 -40 -13.333 -40 -40v-700z" />
    <glyph glyph-name="grave" unicode="`" horiz-adv-x="900" 
d="M504 559l17.999 -32.999c7.33301 -12 11 -20 11 -24c0 -6.66699 -6 -10 -18 -10c-17.333 0 -33.666 4 -48.999 12c-7.33301 3.33301 -25.5 18.833 -54.5 46.5s-43.5 43.5 -43.5 47.5s6.66699 6 20 6h54c15.333 0 27 -2.83301 35 -8.5s17 -17.834 27 -36.501z
M39.999 -139.999l0.000976562 780c0 53.333 26.667 80 80 80h660c53.333 0 80 -33.333 80 -100v-740c0 -66.667 -26.667 -100 -80 -100h-660c-50.667 0 -77.334 26.667 -80.001 80zM120 -99.999c2.66699 -29.333 16.001 -42.667 40.001 -40h580
c29.333 0 42.666 13.333 39.999 40v700c0 26.667 -13.333 40 -40 40h-580c-26.667 0 -40 -13.333 -40 -40v-700z" />
    <glyph glyph-name="a" unicode="a" horiz-adv-x="900" 
d="M539 60c-26 -20.667 -51.334 -35.999 -76.001 -45.999s-52 -15 -82 -15c-28.667 0 -53.5 5.5 -74.5 16.5s-37.167 25.833 -48.5 44.5s-17 39 -17 61c0 30 9.5 55.333 28.5 76s44.833 35 77.5 43c7.33301 1.33301 24.666 4.83301 51.999 10.5l70 15
c19.333 4.33301 40.333 10.166 63 17.499c-1.33301 28.667 -7.16602 49.667 -17.499 63s-31.5 20 -63.5 20c-27.333 0 -48 -3.83301 -62 -11.5s-26 -19.334 -36 -35.001s-17 -25.834 -21 -30.501s-12.667 -7 -26 -7c-12.667 0 -23.5 3.83301 -32.5 11.5
s-13.5 17.834 -13.5 30.501c0 18.667 6.83301 37.167 20.5 55.5s34.834 33.333 63.501 45s64.334 17.5 107.001 17.5c48 0 85.833 -5.66699 113.5 -17s47 -29.166 58 -53.499s16.5 -56.833 16.5 -97.5v-64.5c0 -17.667 -0.333008 -37.5 -1 -59.5
c0 -20.667 3.5 -42.167 10.5 -64.5s10.5 -36.5 10.5 -42.5c0 -11.333 -5.33301 -21.5 -16 -30.5s-22.667 -13.5 -36 -13.5c-11.333 0 -22.333 5.16699 -33 15.5s-22.334 25.5 -35.001 45.5zM531.999 218.001c-16 -6 -38.999 -12.333 -68.999 -19s-51 -11.5 -63 -14.5
s-23.333 -9 -34 -18s-16 -21.5 -16 -37.5c0 -16.667 6.33301 -30.667 19 -42s29 -17 49 -17c21.333 0 41.166 4.66699 59.499 14s31.833 21.333 40.5 36c9.33301 16.667 14 44 14 82v16zM40 -139.999l0.000976562 780c0 53.333 26.667 80 80 80h660
c53.333 0 80 -33.333 80 -100v-740c0 -66.667 -26.667 -100 -80 -100h-660c-50.667 0 -77.334 26.667 -80.001 80zM120.001 -99.999c2.66699 -29.333 16.001 -42.667 40.001 -40h580c29.333 0 42.666 13.333 39.999 40v700c0 26.667 -13.333 40 -40 40h-580
c-26.667 0 -40 -13.333 -40 -40v-700z" />
    <glyph glyph-name="b" unicode="b" horiz-adv-x="900" 
d="M340 536v-166.002c20.667 21.333 41.667 37.666 63 48.999s47.666 17 78.999 17c36 0 67.667 -8.66699 95 -26s48.5 -42.166 63.5 -74.499s22.5 -70.833 22.5 -115.5c0 -33.333 -4.16699 -63.666 -12.5 -90.999s-20.5 -51.166 -36.5 -71.499s-35.333 -36 -58 -47
s-48 -16.5 -76 -16.5c-16.667 0 -32.334 1.83301 -47.001 5.5s-27.167 8.83398 -37.5 15.501s-19.166 13.5 -26.499 20.5s-17 17.5 -29 31.5v-11c0 -20.667 -5 -36.167 -15 -46.5s-22.333 -15.5 -37 -15.5c-15.333 0 -27.666 5.16699 -36.999 15.5s-14 25.833 -14 46.5v476
c0 22 4.5 38.667 13.5 50s21.5 17 37.5 17c16.667 0 29.5 -5.33301 38.5 -16s13.5 -26.334 13.5 -47.001zM346 212.998c0 -43.333 9.83203 -76.668 29.499 -100.001s45.5 -35 77.5 -35c27.333 0 51 11.833 71 35.5s30 57.834 30 102.501
c0 29.333 -4.16699 54.166 -12.5 74.499s-20.166 36.166 -35.499 47.499s-33 17 -53 17c-20.667 0 -39 -5.66699 -55 -17s-28.667 -27.666 -38 -48.999s-14 -46.666 -14 -75.999zM39.999 -140.004l0.000976562 780c0 53.333 26.667 80 80 80h660
c53.333 0 80 -33.333 80 -100v-740c0 -66.667 -26.667 -100 -80 -100h-660c-50.667 0 -77.334 26.667 -80.001 80zM120 -100.004c2.66699 -29.333 16.001 -42.667 40.001 -40h580c29.333 0 42.666 13.333 39.999 40v700c0 26.667 -13.333 40 -40 40h-580
c-26.667 0 -40 -13.333 -40 -40v-700z" />
    <glyph glyph-name="c" unicode="c" horiz-adv-x="900" 
d="M656 132c0 -13.333 -4.16797 -27.667 -12.501 -43s-20.666 -30 -36.999 -44s-37.166 -25.167 -62.499 -33.5s-54 -12.5 -86 -12.5c-66.667 0 -119 19.5 -157 58.5s-57 91.833 -57 158.5c0 44 8.66699 83.167 26 117.5s42.333 60.833 75 79.5s71.667 28 117 28
c28 0 53.833 -4.16699 77.5 -12.5s43.667 -19 60 -32s28.833 -26.833 37.5 -41.5s13 -28.334 13 -41.001c0 -13.333 -4.83301 -24.5 -14.5 -33.5s-21.5 -13.5 -35.5 -13.5c-9.33301 0 -16.833 2.33301 -22.5 7s-12.167 12 -19.5 22c-13.333 20.667 -27.333 36 -42 46
s-33.334 15 -56.001 15c-31.333 0 -56.833 -12.5 -76.5 -37.5s-29.5 -59.167 -29.5 -102.5c0 -20.667 2.5 -39.5 7.5 -56.5s12.333 -31.667 22 -44s21.167 -21.5 34.5 -27.5s28 -9 44 -9c21.333 0 40 5 56 15s29.667 25.333 41 46c7.33301 12.667 14.833 22.334 22.5 29.001
s17.167 10 28.5 10c13.333 0 24.333 -5 33 -15s13 -21 13 -33zM39.999 -140.001l0.000976562 780c0 53.333 26.667 80 80 80h660c53.333 0 80 -33.333 80 -100v-740c0 -66.667 -26.667 -100 -80 -100h-660c-50.667 0 -77.334 26.667 -80.001 80zM120 -100.001
c2.66699 -29.333 16.001 -42.667 40.001 -40h580c29.333 0 42.666 13.333 39.999 40v700c0 26.667 -13.333 40 -40 40h-580c-26.667 0 -40 -13.333 -40 -40v-700z" />
    <glyph glyph-name="d" unicode="d" horiz-adv-x="900" 
d="M560 62l-0.00195312 10.999c-14.667 -17.333 -29.167 -31.166 -43.5 -41.499s-29.666 -18.166 -45.999 -23.499s-34.166 -8 -53.499 -8c-26 0 -50.333 5.5 -73 16.5s-42 26.667 -58 47s-28.167 44.5 -36.5 72.5s-12.5 58 -12.5 90c0 67.333 16.667 120.166 50 158.499
s77 57.5 131 57.5c31.333 0 57.833 -5.33301 79.5 -16s42.5 -27.334 62.5 -50.001v161c0 22 4.5 38.833 13.5 50.5s21.833 17.5 38.5 17.5s29.334 -5.16699 38.001 -15.5s13 -26.166 13 -47.499v-480c0 -21.333 -4.83301 -37 -14.5 -47s-21.834 -15 -36.501 -15
s-27 5.33301 -37 16s-15 26 -15 46zM345.998 221.999c0 -29.333 4.66895 -54.501 14.002 -75.501s22 -36.667 38 -47s33.333 -15.5 52 -15.5s36 5 52 15s28.667 25.333 38 46s14 46.334 14 77.001c0 29.333 -4.66699 54.333 -14 75s-22 36.5 -38 47.5s-33.333 16.5 -52 16.5
c-20.667 0 -38.834 -5.66699 -54.501 -17s-27.834 -27.5 -36.501 -48.5s-13 -45.5 -13 -73.5zM40 -140.002l0.000976562 780c0 53.333 26.667 80 80 80h660c53.333 0 80 -33.333 80 -100v-740c0 -66.667 -26.667 -100 -80 -100h-660c-50.667 0 -77.334 26.667 -80.001 80z
M120.001 -100.002c2.66699 -29.333 16.001 -42.667 40.001 -40h580c29.333 0 42.666 13.333 39.999 40v700c0 26.667 -13.333 40 -40 40h-580c-26.667 0 -40 -13.333 -40 -40v-700z" />
    <glyph glyph-name="e" unicode="e" horiz-adv-x="900" 
d="M567 194l-212.999 0.00195312c0.666992 -24.667 5.83398 -46.334 15.501 -65.001s22.667 -32.834 39 -42.501s33.833 -14.5 52.5 -14.5c13.333 0 25.333 1.5 36 4.5s21 7.83301 31 14.5s19.333 13.667 28 21l34 30c5.33301 4.66699 13.333 7 24 7s19.5 -3 26.5 -9
s10.5 -14.667 10.5 -26c0 -10 -3.83301 -21.5 -11.5 -34.5s-19.334 -25.667 -35.001 -38s-35.334 -22.333 -59.001 -30s-50.834 -11.5 -81.501 -11.5c-69.333 -0 -123.5 19.833 -162.5 59.5s-58.5 93.5 -58.5 161.5c0 32 4.83301 62 14.5 90s23.667 51.833 42 71.5
s41 34.667 68 45s56.5 15.5 88.5 15.5c42.667 0 79.334 -9 110.001 -27s53.667 -41.167 69 -69.5s23 -57.5 23 -87.5c0 -26.667 -8 -44.167 -24 -52.5s-38.333 -12.5 -67 -12.5zM354.001 256.002l198.002 0.00195312c-2.66699 37.333 -12.834 65.166 -30.501 83.499
s-40.5 27.5 -68.5 27.5c-26.667 0 -48.834 -9.33301 -66.501 -28s-28.5 -46.334 -32.5 -83.001zM40.0029 -139.996l0.000976562 780c0 53.333 26.667 80 80 80h660c53.333 0 80 -33.333 80 -100v-740c0 -66.667 -26.667 -100 -80 -100h-660
c-50.667 0 -77.334 26.667 -80.001 80zM120.004 -99.9961c2.66699 -29.333 16.001 -42.667 40.001 -40h580c29.333 0 42.666 13.333 39.999 40v700c0 26.667 -13.333 40 -40 40h-580c-26.667 0 -40 -13.333 -40 -40v-700z" />
    <glyph glyph-name="f" unicode="f" horiz-adv-x="900" 
d="M362 417h25.999v33c0 34 4.33301 61.167 13 81.5s23.167 35 43.5 44s48.5 13.5 84.5 13.5c64 0 96 -15.667 96 -47c0 -10 -3.33301 -18.5 -10 -25.5s-14.667 -10.5 -24 -10.5c-4 0 -11.167 0.666992 -21.5 2s-19.5 2 -27.5 2c-19.333 0 -31.833 -5.83301 -37.5 -17.5
s-8.5 -28.167 -8.5 -49.5v-26h27c42 0 63 -12.667 63 -38c0 -17.333 -5.66699 -28.5 -17 -33.5s-26.666 -7.5 -45.999 -7.5h-27v-288c0 -21.333 -5 -37.666 -15 -48.999s-23 -17 -39 -17s-29 5.66699 -39 17s-15 27.666 -15 48.999v288h-30c-16 0 -28.5 3.66699 -37.5 11
s-13.5 17 -13.5 29c0 26 18.333 39 55 39zM39.999 -140l0.000976562 780c0 53.333 26.667 80 80 80h660c53.333 0 80 -33.333 80 -100v-740c0 -66.667 -26.667 -100 -80 -100h-660c-50.667 0 -77.334 26.667 -80.001 80zM120 -100
c2.66699 -29.333 16.001 -42.667 40.001 -40h580c29.333 0 42.666 13.333 39.999 40v700c0 26.667 -13.333 40 -40 40h-580c-26.667 0 -40 -13.333 -40 -40v-700z" />
    <glyph glyph-name="g" unicode="g" horiz-adv-x="900" 
d="M662 394v-316c0 -36.667 -3.83301 -68 -11.5 -94s-20 -47.5 -37 -64.5s-39.167 -29.667 -66.5 -38s-61.333 -12.5 -102 -12.5c-38 0 -71.833 5.33301 -101.5 16s-52.5 24.334 -68.5 41.001s-24 33.667 -24 51c0 13.333 4.5 24.333 13.5 33s20.167 13 33.5 13
c16 0 30 -7.33301 42 -22c6 -6.66699 12 -13.834 18 -21.501s12.833 -14 20.5 -19s16.834 -8.83301 27.501 -11.5s23 -4 37 -4c28 0 49.667 4 65 12s26.166 19 32.499 33s10.166 29 11.499 45s2 42 2 78c-16.667 -23.333 -36 -41.166 -58 -53.499s-48 -18.5 -78 -18.5
c-36.667 0 -68.5 9.33301 -95.5 28s-47.833 44.667 -62.5 78s-22 72 -22 116c0 32.667 4.33301 62.167 13 88.5s21.334 48.666 38.001 66.999s35.667 32 57 41s45.333 13.5 72 13.5c30 0 56.333 -5.83301 79 -17.5s43.667 -30.5 63 -56.5v16
c0 18.667 4.66699 33.167 14 43.5s21.333 15.5 36 15.5c21.333 0 35.333 -6.83301 42 -20.5s10 -33.5 10 -59.5zM347 255c0 -44 9.66699 -77.168 29 -99.501s44 -33.5 74 -33.5c18.667 0 36 4.83301 52 14.5s29 24.167 39 43.5s15 43 15 71
c0 44.667 -9.66699 79.334 -29 104.001s-45 37 -77 37c-31.333 0 -56.333 -11.833 -75 -35.5s-28 -57.5 -28 -101.5zM40 -140.001l0.000976562 780c0 53.333 26.667 80 80 80h660c53.333 0 80 -33.333 80 -100v-740c0 -66.667 -26.667 -100 -80 -100h-660
c-50.667 0 -77.334 26.667 -80.001 80zM120.001 -100.001c2.66699 -29.333 16.001 -42.667 40.001 -40h580c29.333 0 42.666 13.333 39.999 40v700c0 26.667 -13.333 40 -40 40h-580c-26.667 0 -40 -13.333 -40 -40v-700z" />
    <glyph glyph-name="h" unicode="h" horiz-adv-x="900" 
d="M366 538v-161.001c13.333 16 26.666 28.667 39.999 38s27.833 16.166 43.5 20.499s32.834 6.5 51.501 6.5c27.333 0 51.666 -5.83301 72.999 -17.5s38.333 -28.5 51 -50.5c8 -13.333 13.333 -28 16 -44s4 -34.333 4 -55v-209c0 -22 -5.16699 -38.5 -15.5 -49.5
s-23.5 -16.5 -39.5 -16.5c-36 0 -54 22 -54 66v184c0 34.667 -5.16699 61.334 -15.5 80.001s-30.166 28 -59.499 28c-18.667 0 -35.834 -5.5 -51.501 -16.5s-27.5 -25.833 -35.5 -44.5c-5.33301 -16 -8 -45 -8 -87v-144c0 -21.333 -5 -37.666 -15 -48.999
s-23.667 -17 -41 -17c-36 0 -54 22 -54 66v472c0 22.667 4.83301 39.5 14.5 50.5s22.834 16.5 39.501 16.5c17.333 0 31 -5.66699 41 -17s15 -28 15 -50zM40 -140.001l0.000976562 780c0 53.333 26.667 80 80 80h660c53.333 0 80 -33.333 80 -100v-740
c0 -66.667 -26.667 -100 -80 -100h-660c-50.667 0 -77.334 26.667 -80.001 80zM120.001 -100.001c2.66699 -29.333 16.001 -42.667 40.001 -40h580c29.333 0 42.666 13.333 39.999 40v700c0 26.667 -13.333 40 -40 40h-580c-26.667 0 -40 -13.333 -40 -40v-700z" />
    <glyph glyph-name="i" unicode="i" horiz-adv-x="900" 
d="M505 384v-314.999c0 -22 -5.16699 -38.5 -15.5 -49.5s-23.5 -16.5 -39.5 -16.5s-29 5.66699 -39 17s-15 27.666 -15 48.999v312c0 21.333 5 37.5 15 48.5s23 16.5 39 16.5s29.167 -5.5 39.5 -16.5s15.5 -26.167 15.5 -45.5zM450 497.001
c-14 0 -26.499 4.66699 -37.499 14s-16.5 22.666 -16.5 39.999c0 15.333 5.66699 27.833 17 37.5s23.666 14.5 36.999 14.5c14.667 0 27.5 -4.5 38.5 -13.5s16.5 -21.833 16.5 -38.5c0 -17.333 -5.33301 -30.666 -16 -39.999s-23.667 -14 -39 -14zM40.001 -139.999
l0.000976562 780c0 53.333 26.667 80 80 80h660c53.333 0 80 -33.333 80 -100v-740c0 -66.667 -26.667 -100 -80 -100h-660c-50.667 0 -77.334 26.667 -80.001 80zM120.002 -99.999c2.66699 -29.333 16.001 -42.667 40.001 -40h580c29.333 0 42.666 13.333 39.999 40v700
c0 26.667 -13.333 40 -40 40h-580c-26.667 0 -40 -13.333 -40 -40v-700z" />
    <glyph glyph-name="j" unicode="j" horiz-adv-x="900" 
d="M507 381l-0.00195312 -334c0 -26 -0.833008 -47.333 -2.5 -64s-4.16699 -29 -7.5 -37c-18 -46 -56.333 -69 -115 -69c-32.667 0 -57.5 4.5 -74.5 13.5s-25.5 22.167 -25.5 39.5c0 13.333 3.83301 24 11.5 32s17.834 12 30.501 12c1.33301 0 3.83301 -0.166992 7.5 -0.5
l16 -1.5c7 -0.666992 11.833 -1 14.5 -1c14.667 0 24.334 5.83301 29.001 17.5s7 32.167 7 61.5v331c0 21.333 5 37.5 15 48.5s23.333 16.5 40 16.5c16 0 29 -5.33301 39 -16s15 -27 15 -49zM452.998 497c-15.333 0 -28.332 4.66699 -38.999 14s-16 22.333 -16 39
c0 16 5.5 28.833 16.5 38.5s23.833 14.5 38.5 14.5c14 0 26.5 -4.5 37.5 -13.5s16.5 -22.167 16.5 -39.5c0 -16.667 -5.33301 -29.667 -16 -39s-23.334 -14 -38.001 -14zM39.999 -140l0.000976562 780c0 53.333 26.667 80 80 80h660c53.333 0 80 -33.333 80 -100v-740
c0 -66.667 -26.667 -100 -80 -100h-660c-50.667 0 -77.334 26.667 -80.001 80zM120 -100c2.66699 -29.333 16.001 -42.667 40.001 -40h580c29.333 0 42.666 13.333 39.999 40v700c0 26.667 -13.333 40 -40 40h-580c-26.667 0 -40 -13.333 -40 -40v-700z" />
    <glyph glyph-name="k" unicode="k" horiz-adv-x="900" 
d="M526 50l-95.999 157.999l-59 -56v-87c0 -20.667 -5.5 -36.667 -16.5 -48s-23.833 -17 -38.5 -17c-16.667 0 -29.834 5.5 -39.501 16.5s-14.5 27.5 -14.5 49.5v464c0 24.667 4.66699 43.334 14 56.001s22.666 19 39.999 19s30.833 -5.83301 40.5 -17.5
s14.5 -28.5 14.5 -50.5v-264l122 128c15.333 16 27 26.833 35 32.5s17.667 8.5 29 8.5c14 0 25.5 -4.16699 34.5 -12.5s13.5 -19.166 13.5 -32.499c0 -16 -15 -37.333 -45 -64l-58 -52l112 -176l18 -30c4 -6.66699 6 -13.334 6 -20.001c0 -16.667 -4.83301 -30 -14.5 -40
s-22.167 -15 -37.5 -15c-13.333 0 -23.666 3.5 -30.999 10.5s-17 20.167 -29 39.5zM40.001 -140.001l0.000976562 780c0 53.333 26.667 80 80 80h660c53.333 0 80 -33.333 80 -100v-740c0 -66.667 -26.667 -100 -80 -100h-660c-50.667 0 -77.334 26.667 -80.001 80z
M120.002 -100.001c2.66699 -29.333 16.001 -42.667 40.001 -40h580c29.333 0 42.666 13.333 39.999 40v700c0 26.667 -13.333 40 -40 40h-580c-26.667 0 -40 -13.333 -40 -40v-700z" />
    <glyph glyph-name="l" unicode="l" horiz-adv-x="900" 
d="M396 66v472.001c0 22 5 38.667 15 50s23 17 39 17s29.167 -5.5 39.5 -16.5s15.5 -27.833 15.5 -50.5v-472c0 -22 -5.16699 -38.5 -15.5 -49.5s-23.5 -16.5 -39.5 -16.5s-29 5.66699 -39 17s-15 27.666 -15 48.999zM40 -139.999l0.000976562 780c0 53.333 26.667 80 80 80
h660c53.333 0 80 -33.333 80 -100v-740c0 -66.667 -26.667 -100 -80 -100h-660c-50.667 0 -77.334 26.667 -80.001 80zM120.001 -99.999c2.66699 -29.333 16.001 -42.667 40.001 -40h580c29.333 0 42.666 13.333 39.999 40v700c0 26.667 -13.333 40 -40 40h-580
c-26.667 0 -40 -13.333 -40 -40v-700z" />
    <glyph glyph-name="m" unicode="m" horiz-adv-x="900" 
d="M506 213l0.000976562 -144.998c0 -23.333 -5.16699 -40.5 -15.5 -51.5s-23.833 -16.5 -40.5 -16.5c-16 0 -29.167 5.5 -39.5 16.5s-15.5 28.167 -15.5 51.5v173c0 27.333 -0.833008 48.666 -2.5 63.999s-6.66699 27.833 -15 37.5s-21.5 14.5 -39.5 14.5
c-36 0 -59.667 -12.167 -71 -36.5s-17 -59.166 -17 -104.499v-148c0 -22.667 -5.16699 -39.667 -15.5 -51s-23.833 -17 -40.5 -17c-16 0 -29.333 5.66699 -40 17s-16 28.333 -16 51v312c0 20 4.66699 35.333 14 46s22 16 38 16c14.667 0 27 -4.83301 37 -14.5
s15 -23.5 15 -41.5v-10c18.667 22 38.834 38.333 60.501 49s45.5 16 71.5 16c28 0 51.667 -5.33301 71 -16s35.666 -27 48.999 -49c18 22 37.5 38.333 58.5 49s44.167 16 69.5 16c30 0 55.833 -5.83301 77.5 -17.5s37.834 -28.5 48.501 -50.5c9.33301 -19.333 14 -50 14 -92
v-213c0 -23.333 -5.16699 -40.5 -15.5 -51.5s-23.833 -16.5 -40.5 -16.5s-30.334 5.66699 -41.001 17s-16 28.333 -16 51v183c0 23.333 -1 42.166 -3 56.499s-7.33301 26.166 -16 35.499s-22 14 -40 14c-14.667 0 -28.334 -4.16699 -41.001 -12.5s-23 -19.833 -31 -34.5
c-8 -18.667 -12 -51 -12 -97zM40.001 -139.998l0.000976562 780c0 53.333 26.667 80 80 80h660c53.333 0 80 -33.333 80 -100v-740c0 -66.667 -26.667 -100 -80 -100h-660c-50.667 0 -77.334 26.667 -80.001 80zM120.002 -99.998c2.66699 -29.333 16.001 -42.667 40.001 -40
h580c29.333 0 42.666 13.333 39.999 40v700c0 26.667 -13.333 40 -40 40h-580c-26.667 0 -40 -13.333 -40 -40v-700z" />
    <glyph glyph-name="n" unicode="n" horiz-adv-x="900" 
d="M358 382v-13.0029c19.333 25.333 40.333 43.833 63 55.5s48.667 17.5 78 17.5c28.667 0 54.334 -6.16699 77.001 -18.5s39.667 -30.166 51 -53.499c7.33301 -13.333 12.166 -27.666 14.499 -42.999s3.5 -35 3.5 -59v-203c0 -21.333 -5.16699 -37.5 -15.5 -48.5
s-23.5 -16.5 -39.5 -16.5s-29 5.5 -39 16.5s-15 27.167 -15 48.5v182c0 36 -5 63.5 -15 82.5s-30 28.5 -60 28.5c-18.667 0 -36 -5.83301 -52 -17.5s-27.667 -27.5 -35 -47.5c-5.33301 -16 -8 -46.333 -8 -91v-137c0 -21.333 -5.33301 -37.5 -16 -48.5s-24 -16.5 -40 -16.5
s-29 5.5 -39 16.5s-15 27.167 -15 48.5v316c0 20.667 4.5 36 13.5 46s21.5 15 37.5 15c10 0 18.833 -2.16699 26.5 -6.5s13.667 -11.166 18 -20.499s6.5 -20.333 6.5 -33zM40 -140.003l0.000976562 780c0 53.333 26.667 80 80 80h660c53.333 0 80 -33.333 80 -100v-740
c0 -66.667 -26.667 -100 -80 -100h-660c-50.667 0 -77.334 26.667 -80.001 80zM120.001 -100.003c2.66699 -29.333 16.001 -42.667 40.001 -40h580c29.333 0 42.666 13.333 39.999 40v700c0 26.667 -13.333 40 -40 40h-580c-26.667 0 -40 -13.333 -40 -40v-700z" />
    <glyph glyph-name="o" unicode="o" horiz-adv-x="900" 
d="M667 221c0 -32 -4.99805 -61.8311 -14.998 -89.498s-24.667 -51.334 -44 -71.001s-42.333 -34.667 -69 -45s-56.334 -15.5 -89.001 -15.5s-62.167 5.16699 -88.5 15.5s-49.333 25.5 -69 45.5s-34.334 43.5 -44.001 70.5s-14.5 56.833 -14.5 89.5s5 62.834 15 90.501
s24.5 51.167 43.5 70.5s42 34.166 69 44.499s56.5 15.5 88.5 15.5c32.667 0 62.5 -5.33301 89.5 -16s50.167 -25.834 69.5 -45.501s33.833 -43.167 43.5 -70.5s14.5 -57 14.5 -89zM558.002 221.002c0 44 -9.83203 78.335 -29.499 103.002s-45.834 37 -78.501 37
c-21.333 0 -40 -5.33301 -56 -16s-28.5 -26.834 -37.5 -48.501s-13.5 -46.834 -13.5 -75.501s4.33301 -53.667 13 -75s21.167 -37.5 37.5 -48.5s35.166 -16.5 56.499 -16.5c32.667 0 58.834 12.333 78.501 37s29.5 59 29.5 103zM40.0029 -139.996l0.000976562 780
c0 53.333 26.667 80 80 80h660c53.333 0 80 -33.333 80 -100v-740c0 -66.667 -26.667 -100 -80 -100h-660c-50.667 0 -77.334 26.667 -80.001 80zM120.004 -99.9961c2.66699 -29.333 16.001 -42.667 40.001 -40h580c29.333 0 42.666 13.333 39.999 40v700
c0 26.667 -13.333 40 -40 40h-580c-26.667 0 -40 -13.333 -40 -40v-700z" />
    <glyph glyph-name="p" unicode="p" horiz-adv-x="900" 
d="M340 413v-14.002c20.667 26 42.167 44.833 64.5 56.5s46.833 17.5 73.5 17.5c34 0 65.167 -8.66699 93.5 -26s50.666 -42.666 66.999 -75.999s24.5 -72.666 24.5 -117.999c0 -33.333 -4.83301 -64 -14.5 -92s-22.667 -51.5 -39 -70.5s-35.666 -33.667 -57.999 -44
s-46.833 -15.5 -73.5 -15.5c-30 0 -55.667 6.16699 -77 18.5s-41.666 30.833 -60.999 55.5v-164c0 -48 -17.333 -72 -52 -72c-20.667 0 -34.334 6.33301 -41.001 19s-10 30.667 -10 54v470c0 20.667 4.5 36.167 13.5 46.5s21.5 15.5 37.5 15.5
c15.333 0 27.833 -5.16699 37.5 -15.5s14.5 -25.5 14.5 -45.5zM554 253.998c0 28.667 -4.49902 53.332 -13.499 73.999s-21.333 36.5 -37 47.5s-32.834 16.5 -51.501 16.5c-30 0 -55.167 -11.833 -75.5 -35.5s-30.5 -58.5 -30.5 -104.5c0 -43.333 10.167 -77 30.5 -101
s45.5 -36 75.5 -36c18 0 34.833 5.33301 50.5 16s28.167 26.334 37.5 47.001s14 46 14 76zM40.001 -140.004l0.000976562 780c0 53.333 26.667 80 80 80h660c53.333 0 80 -33.333 80 -100v-740c0 -66.667 -26.667 -100 -80 -100h-660c-50.667 0 -77.334 26.667 -80.001 80z
M120.002 -100.004c2.66699 -29.333 16.001 -42.667 40.001 -40h580c29.333 0 42.666 13.333 39.999 40v700c0 26.667 -13.333 40 -40 40h-580c-26.667 0 -40 -13.333 -40 -40v-700z" />
    <glyph glyph-name="q" unicode="q" horiz-adv-x="900" 
d="M560 -58l-0.000976562 153.001c-20.667 -20.667 -42.5 -36.5 -65.5 -47.5s-48.167 -16.5 -75.5 -16.5c-33.333 0 -64 8.83301 -92 26.5s-49.833 43.167 -65.5 76.5s-23.5 72.666 -23.5 117.999c0 46.667 8 86.5 24 119.5s38 58.167 66 75.5s59.333 26 94 26
c29.333 0 55.5 -6 78.5 -18s42.833 -30.667 59.5 -56v14c0 20 4.83301 35.167 14.5 45.5s22.167 15.5 37.5 15.5c14.667 0 26.834 -5.16699 36.501 -15.5s14.5 -25.5 14.5 -45.5v-471c0 -48.667 -17 -73 -51 -73c-21.333 0 -35.333 6.5 -42 19.5s-10 30.833 -10 53.5z
M346.999 253.001c0 -29.333 4.66797 -54.502 14.001 -75.502s21.833 -36.667 37.5 -47s32.5 -15.5 50.5 -15.5c18.667 0 36.167 5.16699 52.5 15.5s29.333 25.833 39 46.5s14.5 46.667 14.5 78c0 21.333 -2.83301 40.833 -8.5 58.5s-13.334 32.334 -23.001 44.001
s-21 20.334 -34 26.001s-26.167 8.5 -39.5 8.5c-29.333 0 -53.833 -12.167 -73.5 -36.5s-29.5 -58.5 -29.5 -102.5zM40 -140.001l0.000976562 780c0 53.333 26.667 80 80 80h660c53.333 0 80 -33.333 80 -100v-740c0 -66.667 -26.667 -100 -80 -100h-660
c-50.667 0 -77.334 26.667 -80.001 80zM120.001 -100.001c2.66699 -29.333 16.001 -42.667 40.001 -40h580c29.333 0 42.666 13.333 39.999 40v700c0 26.667 -13.333 40 -40 40h-580c-26.667 0 -40 -13.333 -40 -40v-700z" />
    <glyph glyph-name="r" unicode="r" horiz-adv-x="900" 
d="M410 157l0.00195312 -91.999c0 -21.333 -5.16699 -37.5 -15.5 -48.5s-23.5 -16.5 -39.5 -16.5s-29 5.5 -39 16.5s-15 27.167 -15 48.5v304c0 48.667 17.667 73 53 73c18.667 0 32 -5.66699 40 -17s12 -28.333 12 -51c13.333 22.667 26.666 39.667 39.999 51
s31.666 17 54.999 17c22.667 0 44.834 -5.66699 66.501 -17s32.5 -26.333 32.5 -45c0 -13.333 -4.5 -24.5 -13.5 -33.5s-18.833 -13.5 -29.5 -13.5c-4.66699 0 -14.5 2.66699 -29.5 8s-28.5 8 -40.5 8c-16 0 -28.833 -4.33301 -38.5 -13s-17.334 -21.334 -23.001 -38.001
s-9.66699 -36.167 -12 -58.5s-3.5 -49.833 -3.5 -82.5zM40.002 -139.999l0.000976562 780c0 53.333 26.667 80 80 80h660c53.333 0 80 -33.333 80 -100v-740c0 -66.667 -26.667 -100 -80 -100h-660c-50.667 0 -77.334 26.667 -80.001 80zM120.003 -99.999
c2.66699 -29.333 16.001 -42.667 40.001 -40h580c29.333 0 42.666 13.333 39.999 40v700c0 26.667 -13.333 40 -40 40h-580c-26.667 0 -40 -13.333 -40 -40v-700z" />
    <glyph glyph-name="s" unicode="s" horiz-adv-x="900" 
d="M637 142c0 -30 -7.33203 -55.667 -21.999 -77s-36.5 -37.5 -65.5 -48.5s-63.5 -16.5 -103.5 -16.5c-39.333 -0 -73 5.83301 -101 17.5s-48.667 26.5 -62 44.5s-20 36.333 -20 55c0 11.333 4.33301 21.333 13 30s19.334 13 32.001 13c12 0 21 -2.83301 27 -8.5
s11.667 -13.5 17 -23.5c11.333 -19.333 24.833 -33.833 40.5 -43.5s36.5 -14.5 62.5 -14.5c22 0 40 4.83301 54 14.5s21 20.834 21 33.501c0 19.333 -7.33301 33.333 -22 42s-38 17 -70 25c-38 9.33301 -68.833 19 -92.5 29s-42.5 23.5 -56.5 40.5s-21 37.833 -21 62.5
c0 21.333 6.5 41.833 19.5 61.5s32.167 35.167 57.5 46.5s56.333 17 93 17c27.333 0 52.166 -2.83301 74.499 -8.5s41.166 -13.5 56.499 -23.5s26.833 -21 34.5 -33s11.5 -23.667 11.5 -35c0 -12.667 -4.16699 -23 -12.5 -31s-20.166 -12 -35.499 -12
c-11.333 0 -21 3.16699 -29 9.5s-17 15.833 -27 28.5c-8 10.667 -17.5 19.334 -28.5 26.001s-25.833 10 -44.5 10c-20 0 -36.5 -4.16699 -49.5 -12.5s-19.5 -18.833 -19.5 -31.5c0 -11.333 4.83301 -20.833 14.5 -28.5s22.5 -13.834 38.5 -18.501s38 -10.334 66 -17.001
c34 -8 61.667 -17.667 83 -29s37.666 -24.833 48.999 -40.5s17 -33.5 17 -53.5zM40.001 -140l0.000976562 780c0 53.333 26.667 80 80 80h660c53.333 0 80 -33.333 80 -100v-740c0 -66.667 -26.667 -100 -80 -100h-660c-50.667 0 -77.334 26.667 -80.001 80zM120.002 -100
c2.66699 -29.333 16.001 -42.667 40.001 -40h580c29.333 0 42.666 13.333 39.999 40v700c0 26.667 -13.333 40 -40 40h-580c-26.667 0 -40 -13.333 -40 -40v-700z" />
    <glyph glyph-name="t" unicode="t" horiz-adv-x="900" 
d="M354 429l12.002 0.00292969v66c0 17.333 0.5 31.166 1.5 41.499s3.5 18.833 7.5 25.5c4.66699 7.33301 11 13.5 19 18.5s17 7.5 27 7.5c14 0 26.333 -5.33301 37 -16c7.33301 -7.33301 11.833 -15.833 13.5 -25.5s2.5 -23.834 2.5 -42.501v-75h40c16 0 28 -3.5 36 -10.5
s12 -16.5 12 -28.5c0 -14.667 -5.83301 -24.834 -17.5 -30.501s-28.167 -8.5 -49.5 -8.5h-21v-200c0 -17.333 0.666992 -30.666 2 -39.999s4.66602 -16.833 9.99902 -22.5s13.666 -8.5 24.999 -8.5c6.66699 0 15.5 1.16699 26.5 3.5s19.5 3.5 25.5 3.5
c8.66699 0 16.667 -3.5 24 -10.5s11 -15.833 11 -26.5c0 -17.333 -9.66699 -30.666 -29 -39.999s-47 -14 -83 -14c-34 0 -59.833 5.66699 -77.5 17s-29.167 27.166 -34.5 47.499s-8 47.5 -8 81.5v209h-14c-16 0 -28.167 3.66699 -36.5 11s-12.5 16.666 -12.5 27.999
c0 12 4.5 21.5 13.5 28.5s21.5 10.5 37.5 10.5zM40.002 -139.997l0.000976562 780c0 53.333 26.667 80 80 80h660c53.333 0 80 -33.333 80 -100v-740c0 -66.667 -26.667 -100 -80 -100h-660c-50.667 0 -77.334 26.667 -80.001 80zM120.003 -99.9971
c2.66699 -29.333 16.001 -42.667 40.001 -40h580c29.333 0 42.666 13.333 39.999 40v700c0 26.667 -13.333 40 -40 40h-580c-26.667 0 -40 -13.333 -40 -40v-700z" />
    <glyph glyph-name="u" unicode="u" horiz-adv-x="900" 
d="M542 61l0.00195312 13.9971c-13.333 -16.667 -27.166 -30.5 -41.499 -41.5s-29.833 -19.167 -46.5 -24.5s-36 -8 -58 -8c-26 0 -49.5 5.33301 -70.5 16s-37.167 25.334 -48.5 44.001c-14 24 -21 57.333 -21 100v216c0 22 5 38.333 15 49s23 16 39 16
c16.667 0 30.167 -5.5 40.5 -16.5s15.5 -27.167 15.5 -48.5v-174c0 -25.333 2 -46.666 6 -63.999s11.5 -30.666 22.5 -39.999s26.167 -14 45.5 -14c17.333 0 34.166 5.33301 50.499 16s28.166 25 35.499 43c6.66699 15.333 10 49 10 101v132c0 21.333 5 37.5 15 48.5
s23 16.5 39 16.5c16.667 0 30 -5.33301 40 -16s15 -27 15 -49v-316c0 -20.667 -4.83301 -36 -14.5 -46s-21.834 -15 -36.501 -15c-15.333 -0 -27.833 5.33301 -37.5 16s-14.5 25.667 -14.5 45zM40.002 -140.003l0.000976562 780c0 53.333 26.667 80 80 80h660
c53.333 0 80 -33.333 80 -100v-740c0 -66.667 -26.667 -100 -80 -100h-660c-50.667 0 -77.334 26.667 -80.001 80zM120.003 -100.003c2.66699 -29.333 16.001 -42.667 40.001 -40h580c29.333 0 42.666 13.333 39.999 40v700c0 26.667 -13.333 40 -40 40h-580
c-26.667 0 -40 -13.333 -40 -40v-700z" />
    <glyph glyph-name="v" unicode="v" horiz-adv-x="900" 
d="M362 374l88.001 -247l95 258c7.33301 21.333 14.666 36.166 21.999 44.499s18.333 12.5 33 12.5c14 0 25.833 -4.66699 35.5 -14s14.5 -20 14.5 -32c0 -4.66699 -0.833008 -10.334 -2.5 -17.001s-3.66699 -12.667 -6 -18s-4.83301 -11.666 -7.5 -18.999l-105 -259
c-3.33301 -7.33301 -7.33301 -16.833 -12 -28.5s-9.83398 -21.5 -15.501 -29.5s-12.667 -14.167 -21 -18.5s-18.5 -6.5 -30.5 -6.5c-15.333 0 -27.5 3.5 -36.5 10.5s-15.833 14.5 -20.5 22.5s-12 24.667 -22 50l-104 256l-7.5 19.5c-2.33301 6.33301 -4.5 12.833 -6.5 19.5
s-3 12.334 -3 17.001c0 7.33301 2.33301 14.833 7 22.5s11 13.667 19 18s16.667 6.5 26 6.5c18.667 0 31.334 -5.16699 38.001 -15.5s14 -27.833 22 -52.5zM40.001 -140l0.000976562 780c0 53.333 26.667 80 80 80h660c53.333 0 80 -33.333 80 -100v-740
c0 -66.667 -26.667 -100 -80 -100h-660c-50.667 0 -77.334 26.667 -80.001 80zM120.002 -100c2.66699 -29.333 16.001 -42.667 40.001 -40h580c29.333 0 42.666 13.333 39.999 40v700c0 26.667 -13.333 40 -40 40h-580c-26.667 0 -40 -13.333 -40 -40v-700z" />
    <glyph glyph-name="w" unicode="w" horiz-adv-x="900" 
d="M244 374l71.002 -243l65 226c6.66699 24 11.667 40.333 15 49s9.66602 16.834 18.999 24.501s22 11.5 38 11.5s28.5 -3.83301 37.5 -11.5s15.333 -16.167 19 -25.5s8.83398 -25.333 15.501 -48l65 -226l72 243c4.66699 18 8.5 31 11.5 39s8 14.833 15 20.5
s16.833 8.5 29.5 8.5c13.333 0 24.833 -4.5 34.5 -13.5s14.5 -19.5 14.5 -31.5c0 -11.333 -4.33301 -28.333 -13 -51l-89 -261c-8 -22 -14 -38 -18 -48s-10.667 -18.667 -20 -26s-22 -11 -38 -11s-28.833 4 -38.5 12s-16.834 18 -21.501 30s-9.66699 27.667 -15 47l-61 212
l-60 -212c-8 -29.333 -16.667 -51.5 -26 -66.5s-26 -22.5 -50 -22.5c-12 0 -22.167 2.16699 -30.5 6.5s-15.333 10.833 -21 19.5s-10.5 19 -14.5 31s-7.33301 21.333 -10 28l-88 261c-9.33301 24.667 -14 41.667 -14 51c0 11.333 4.66699 21.666 14 30.999s21 14 35 14
c18 0 30.167 -5 36.5 -15s13.166 -27.667 20.499 -53zM40.002 -140l0.000976562 780c0 53.333 26.667 80 80 80h660c53.333 0 80 -33.333 80 -100v-740c0 -66.667 -26.667 -100 -80 -100h-660c-50.667 0 -77.334 26.667 -80.001 80zM120.003 -100
c2.66699 -29.333 16.001 -42.667 40.001 -40h580c29.333 0 42.666 13.333 39.999 40v700c0 26.667 -13.333 40 -40 40h-580c-26.667 0 -40 -13.333 -40 -40v-700z" />
    <glyph glyph-name="x" unicode="x" horiz-adv-x="900" 
d="M530 44l-80.001 116.003l-80 -116c-11.333 -16.667 -21.166 -28.334 -29.499 -35.001s-18.5 -10 -30.5 -10c-14 0 -26 4.16699 -36 12.5s-15 18.166 -15 29.499s7.66699 27.666 23 48.999l99 141l-88 118c-15.333 19.333 -23 36.333 -23 51
c0 10.667 4.66699 20.167 14 28.5s21 12.5 35 12.5c12.667 0 23.334 -3.5 32.001 -10.5s18.667 -18.5 30 -34.5l69 -96l69 96c12 16 22.167 27.5 30.5 34.5s18.833 10.5 31.5 10.5c14 0 25.667 -4 35 -12s14 -17.667 14 -29c0 -8 -1.83301 -16 -5.5 -24s-9.5 -17 -17.5 -27
l-88 -118l99 -141c16 -22 24 -38.667 24 -50s-4.83301 -21 -14.5 -29s-21.834 -12 -36.501 -12c-12 0 -22.5 3.5 -31.5 10.5s-18.833 18.5 -29.5 34.5zM39.999 -139.997l0.000976562 780c0 53.333 26.667 80 80 80h660c53.333 0 80 -33.333 80 -100v-740
c0 -66.667 -26.667 -100 -80 -100h-660c-50.667 0 -77.334 26.667 -80.001 80zM120 -99.9971c2.66699 -29.333 16.001 -42.667 40.001 -40h580c29.333 0 42.666 13.333 39.999 40v700c0 26.667 -13.333 40 -40 40h-580c-26.667 0 -40 -13.333 -40 -40v-700z" />
    <glyph glyph-name="y" unicode="y" horiz-adv-x="900" 
d="M393 22l9.99707 24.001l-134 337c-8.66699 19.333 -13 33.666 -13 42.999c0 8.66699 2.33301 17 7 25s11.334 14.5 20.001 19.5s17.667 7.5 27 7.5c15.333 0 27 -5 35 -15s15 -24.333 21 -43l92 -268l88 249c6.66699 20 12.834 35.833 18.501 47.5s11.5 19.5 17.5 23.5
s15 6 27 6c8 0 15.833 -2.16699 23.5 -6.5s13.5 -12.166 17.5 -23.499s6 -21.333 6 -30c-1.33301 3.33301 -3.16602 0.333008 -5.49902 -9s-5.16602 -19 -8.49902 -29l-142 -372c-12 -32.667 -23.833 -58.334 -35.5 -77.001s-27.167 -33 -46.5 -43s-45.333 -15 -78 -15
c-32 0 -56 3.5 -72 10.5s-24 19.833 -24 38.5c0 12 3.66699 21.5 11 28.5s18.666 10.5 33.999 10.5c6 0 11.667 -0.666992 17 -2c7.33301 -2 13.333 -3 18 -3c12.667 0 22.667 1.83301 30 5.5s13.833 10.167 19.5 19.5s12.167 23 19.5 41zM39.9971 -139.999l0.000976562 780
c0 53.333 26.667 80 80 80h660c53.333 0 80 -33.333 80 -100v-740c0 -66.667 -26.667 -100 -80 -100h-660c-50.667 0 -77.334 26.667 -80.001 80zM119.998 -99.999c2.66699 -29.333 16.001 -42.667 40.001 -40h580c29.333 0 42.666 13.333 39.999 40v700
c0 26.667 -13.333 40 -40 40h-580c-26.667 0 -40 -13.333 -40 -40v-700z" />
    <glyph glyph-name="z" unicode="z" horiz-adv-x="900" 
d="M589 309l-198.999 -222.998h213c17.333 0 30.333 -4 39 -12s13 -18.333 13 -31c0 -12 -4.16699 -22 -12.5 -30s-21.5 -12 -39.5 -12h-295c-20.667 0 -36.167 4.66699 -46.5 14s-15.5 21.666 -15.5 36.999c0 9.33301 3.5 18.666 10.5 27.999s22.167 27 45.5 53l65 72
l54 60l41.5 47.5c11 13 19.833 24.167 26.5 33.5h-162c-22 0 -38.833 2 -50.5 6s-17.5 14.667 -17.5 32c0 12 4.5 21.833 13.5 29.5s21.5 11.5 37.5 11.5h249c23.333 0 41.166 -3.33301 53.499 -10s18.5 -19 18.5 -37c0 -6 -1.16699 -12.167 -3.5 -18.5s-5 -11.5 -8 -15.5
s-7 -8.83301 -12 -14.5zM40.001 -139.998l0.000976562 780c0 53.333 26.667 80 80 80h660c53.333 0 80 -33.333 80 -100v-740c0 -66.667 -26.667 -100 -80 -100h-660c-50.667 0 -77.334 26.667 -80.001 80zM120.002 -99.998c2.66699 -29.333 16.001 -42.667 40.001 -40h580
c29.333 0 42.666 13.333 39.999 40v700c0 26.667 -13.333 40 -40 40h-580c-26.667 0 -40 -13.333 -40 -40v-700z" />
    <glyph glyph-name="braceleft" unicode="{" horiz-adv-x="900" 
d="M40 -140l0.000976562 780c0 53.333 26.667 80 80 80h660c53.333 0 80 -33.333 80 -100v-740c0 -66.667 -26.667 -100 -80 -100h-660c-50.667 0 -77.334 26.667 -80.001 80zM120.001 -100c2.66699 -29.333 16.001 -42.667 40.001 -40h580
c29.333 0 42.666 13.333 39.999 40v700c0 26.667 -13.333 40 -40 40h-580c-26.667 0 -40 -13.333 -40 -40v-700z" />
    <glyph glyph-name="bar" unicode="|" horiz-adv-x="900" 
d="M40 -140l0.000976562 780c0 53.333 26.667 80 80 80h660c53.333 0 80 -33.333 80 -100v-740c0 -66.667 -26.667 -100 -80 -100h-660c-50.667 0 -77.334 26.667 -80.001 80zM120.001 -100c2.66699 -29.333 16.001 -42.667 40.001 -40h580
c29.333 0 42.666 13.333 39.999 40v700c0 26.667 -13.333 40 -40 40h-580c-26.667 0 -40 -13.333 -40 -40v-700z" />
    <glyph glyph-name="braceright" unicode="}" horiz-adv-x="900" 
d="M40 -140l0.000976562 780c0 53.333 26.667 80 80 80h660c53.333 0 80 -33.333 80 -100v-740c0 -66.667 -26.667 -100 -80 -100h-660c-50.667 0 -77.334 26.667 -80.001 80zM120.001 -100c2.66699 -29.333 16.001 -42.667 40.001 -40h580
c29.333 0 42.666 13.333 39.999 40v700c0 26.667 -13.333 40 -40 40h-580c-26.667 0 -40 -13.333 -40 -40v-700z" />
    <glyph glyph-name="asciitilde" unicode="~" horiz-adv-x="900" 
d="M347 230c-38 0 -66.999 -10.0039 -86.999 -30.0039c-37.333 10.667 -44.666 36.667 -21.999 78c18 20 36.5 34 55.5 42s40.5 12 64.5 12c18.667 0 36.334 -2.33301 53.001 -7s33.667 -10.5 51 -17.5s34.333 -13.5 51 -19.5s30 -9 40 -9c16.667 0 34.667 4.83301 54 14.5
s37.666 23.834 54.999 42.501c28 24 46.667 22.667 56 -4s-9.33398 -61 -56.001 -103c-8 -8 -18.5 -16.167 -31.5 -24.5s-26.333 -15.166 -40 -20.499s-26.167 -8 -37.5 -8c-19.333 0 -37.333 2.33301 -54 7s-35.167 11.334 -55.5 20.001s-37.333 15.334 -51 20.001
s-28.834 7 -45.501 7zM40.001 -140.004l0.000976562 780c0 53.333 26.667 80 80 80h660c53.333 0 80 -33.333 80 -100v-740c0 -66.667 -26.667 -100 -80 -100h-660c-50.667 0 -77.334 26.667 -80.001 80zM120.002 -100.004c2.66699 -29.333 16.001 -42.667 40.001 -40h580
c29.333 0 42.666 13.333 39.999 40v700c0 26.667 -13.333 40 -40 40h-580c-26.667 0 -40 -13.333 -40 -40v-700z" />
    <glyph glyph-name="uni00A0" unicode="&#xa0;" 
 />
    <glyph glyph-name="exclamdown" unicode="&#xa1;" 
 />
    <glyph glyph-name="cent" unicode="&#xa2;" 
 />
    <glyph glyph-name="sterling" unicode="&#xa3;" 
 />
    <glyph glyph-name="currency" unicode="&#xa4;" 
 />
    <glyph glyph-name="yen" unicode="&#xa5;" 
 />
    <glyph glyph-name="brokenbar" unicode="&#xa6;" 
 />
    <glyph glyph-name="section" unicode="&#xa7;" 
 />
    <glyph glyph-name="dieresis" unicode="&#xa8;" 
 />
    <glyph glyph-name="copyright" unicode="&#xa9;" horiz-adv-x="900" 
d="M589 336c-14 -40 -33.333 -43.998 -58 -11.998c-19.333 29.333 -45.666 44 -78.999 44c-25.333 0 -45.333 -9.83301 -60 -29.5s-22 -45.834 -22 -78.501c0 -25.333 3.16699 -47 9.5 -65s15.5 -31.333 27.5 -40s26.333 -13 43 -13c36 0 66 17.667 90 53
c24 22 40.333 17 49 -15c-21.333 -64 -68.333 -96 -141 -96c-26 0 -50.333 6.5 -73 19.5s-40.834 32.5 -54.501 58.5s-20.5 57.333 -20.5 94c0 33.333 6.33301 62.666 19 87.999s30.667 45 54 59s50.333 21 81 21c66.667 0 111.667 -29.333 135 -88zM450 561.002
c41.333 0 80.668 -7.66699 118.001 -23s70.166 -37.333 98.499 -66s50.333 -61.5 66 -98.5s23.5 -76.167 23.5 -117.5c0 -55.333 -13.833 -106.5 -41.5 -153.5s-65 -84 -112 -111s-97.833 -40.5 -152.5 -40.5c-56 0 -107.333 13.5 -154 40.5s-83.667 64 -111 111
s-41 98.167 -41 153.5c0 54.667 13.667 105.667 41 153s64.5 84.5 111.5 111.5s98.167 40.5 153.5 40.5zM450.002 501.002c-45.333 0 -86.668 -11 -124.001 -33s-67 -51.833 -89 -89.5s-33 -78.5 -33 -122.5c0 -45.333 11 -86.666 33 -123.999s51.833 -67 89.5 -89
s78.834 -33 123.501 -33c44 0 85 11 123 33s68 51.667 90 89s33 78.666 33 123.999c0 43.333 -11 84 -33 122s-52 68 -90 90s-79 33 -123 33zM40 -139.998l0.000976562 780c0 53.333 26.667 80 80 80h660c53.333 0 80 -33.333 80 -100v-740c0 -66.667 -26.667 -100 -80 -100
h-660c-50.667 0 -77.334 26.667 -80.001 80zM120.001 -99.998c2.66699 -29.333 16.001 -42.667 40.001 -40h580c29.333 0 42.666 13.333 39.999 40v700c0 26.667 -13.333 40 -40 40h-580c-26.667 0 -40 -13.333 -40 -40v-700z" />
    <glyph glyph-name="ordfeminine" unicode="&#xaa;" 
 />
    <glyph glyph-name="guillemotleft" unicode="&#xab;" 
 />
    <glyph glyph-name="logicalnot" unicode="&#xac;" 
 />
    <glyph glyph-name="uni00AD" unicode="&#xad;" 
 />
    <glyph glyph-name="registered" unicode="&#xae;" 
 />
    <glyph glyph-name="macron" unicode="&#xaf;" 
 />
    <glyph glyph-name="degree" unicode="&#xb0;" 
 />
    <glyph glyph-name="plusminus" unicode="&#xb1;" 
 />
    <glyph glyph-name="uni00B2" unicode="&#xb2;" 
 />
    <glyph glyph-name="uni00B3" unicode="&#xb3;" 
 />
    <glyph glyph-name="acute" unicode="&#xb4;" 
 />
    <glyph glyph-name="uni00B5" unicode="&#xb5;" 
 />
    <glyph glyph-name="paragraph" unicode="&#xb6;" 
 />
    <glyph glyph-name="periodcentered" unicode="&#xb7;" 
 />
    <glyph glyph-name="cedilla" unicode="&#xb8;" 
 />
    <glyph glyph-name="uni00B9" unicode="&#xb9;" 
 />
    <glyph glyph-name="ordmasculine" unicode="&#xba;" 
 />
    <glyph glyph-name="guillemotright" unicode="&#xbb;" 
 />
    <glyph glyph-name="onequarter" unicode="&#xbc;" 
 />
    <glyph glyph-name="onehalf" unicode="&#xbd;" 
 />
    <glyph glyph-name="threequarters" unicode="&#xbe;" 
 />
    <glyph glyph-name="questiondown" unicode="&#xbf;" 
 />
    <glyph glyph-name="Agrave" unicode="&#xc0;" 
 />
    <glyph glyph-name="Aacute" unicode="&#xc1;" 
 />
    <glyph glyph-name="Acircumflex" unicode="&#xc2;" 
 />
    <glyph glyph-name="Atilde" unicode="&#xc3;" 
 />
    <glyph glyph-name="Adieresis" unicode="&#xc4;" 
 />
    <glyph glyph-name="Aring" unicode="&#xc5;" 
 />
    <glyph glyph-name="AE" unicode="&#xc6;" 
 />
    <glyph glyph-name="Ccedilla" unicode="&#xc7;" 
 />
    <glyph glyph-name="Egrave" unicode="&#xc8;" 
 />
    <glyph glyph-name="Eacute" unicode="&#xc9;" 
 />
    <glyph glyph-name="Ecircumflex" unicode="&#xca;" 
 />
    <glyph glyph-name="Edieresis" unicode="&#xcb;" 
 />
    <glyph glyph-name="Igrave" unicode="&#xcc;" 
 />
    <glyph glyph-name="Iacute" unicode="&#xcd;" 
 />
    <glyph glyph-name="Icircumflex" unicode="&#xce;" 
 />
    <glyph glyph-name="Idieresis" unicode="&#xcf;" 
 />
    <glyph glyph-name="Eth" unicode="&#xd0;" 
 />
    <glyph glyph-name="Ntilde" unicode="&#xd1;" 
 />
    <glyph glyph-name="Ograve" unicode="&#xd2;" 
 />
    <glyph glyph-name="Oacute" unicode="&#xd3;" 
 />
    <glyph glyph-name="Ocircumflex" unicode="&#xd4;" 
 />
    <glyph glyph-name="Otilde" unicode="&#xd5;" 
 />
    <glyph glyph-name="Odieresis" unicode="&#xd6;" 
 />
    <glyph glyph-name="multiply" unicode="&#xd7;" 
 />
    <glyph glyph-name="Oslash" unicode="&#xd8;" 
 />
    <glyph glyph-name="Ugrave" unicode="&#xd9;" 
 />
    <glyph glyph-name="Uacute" unicode="&#xda;" 
 />
    <glyph glyph-name="Ucircumflex" unicode="&#xdb;" 
 />
    <glyph glyph-name="Udieresis" unicode="&#xdc;" 
 />
    <glyph glyph-name="Yacute" unicode="&#xdd;" 
 />
    <glyph glyph-name="Thorn" unicode="&#xde;" 
 />
    <glyph glyph-name="germandbls" unicode="&#xdf;" 
 />
    <glyph glyph-name="agrave" unicode="&#xe0;" 
 />
    <glyph glyph-name="aacute" unicode="&#xe1;" 
 />
    <glyph glyph-name="acircumflex" unicode="&#xe2;" 
 />
    <glyph glyph-name="atilde" unicode="&#xe3;" 
 />
    <glyph glyph-name="adieresis" unicode="&#xe4;" 
 />
    <glyph glyph-name="aring" unicode="&#xe5;" 
 />
    <glyph glyph-name="ae" unicode="&#xe6;" 
 />
    <glyph glyph-name="ccedilla" unicode="&#xe7;" 
 />
    <glyph glyph-name="egrave" unicode="&#xe8;" 
 />
    <glyph glyph-name="eacute" unicode="&#xe9;" 
 />
    <glyph glyph-name="ecircumflex" unicode="&#xea;" 
 />
    <glyph glyph-name="edieresis" unicode="&#xeb;" 
 />
    <glyph glyph-name="igrave" unicode="&#xec;" 
 />
    <glyph glyph-name="iacute" unicode="&#xed;" 
 />
    <glyph glyph-name="icircumflex" unicode="&#xee;" 
 />
    <glyph glyph-name="idieresis" unicode="&#xef;" 
 />
    <glyph glyph-name="eth" unicode="&#xf0;" 
 />
    <glyph glyph-name="ntilde" unicode="&#xf1;" 
 />
    <glyph glyph-name="ograve" unicode="&#xf2;" 
 />
    <glyph glyph-name="oacute" unicode="&#xf3;" 
 />
    <glyph glyph-name="ocircumflex" unicode="&#xf4;" 
 />
    <glyph glyph-name="otilde" unicode="&#xf5;" 
 />
    <glyph glyph-name="odieresis" unicode="&#xf6;" 
 />
    <glyph glyph-name="divide" unicode="&#xf7;" 
 />
    <glyph glyph-name="oslash" unicode="&#xf8;" 
 />
    <glyph glyph-name="ugrave" unicode="&#xf9;" 
 />
    <glyph glyph-name="uacute" unicode="&#xfa;" 
 />
    <glyph glyph-name="ucircumflex" unicode="&#xfb;" 
 />
    <glyph glyph-name="udieresis" unicode="&#xfc;" 
 />
    <glyph glyph-name="yacute" unicode="&#xfd;" 
 />
    <glyph glyph-name="thorn" unicode="&#xfe;" 
 />
    <glyph glyph-name="ydieresis" unicode="&#xff;" 
 />
    <glyph glyph-name="OE" unicode="&#x152;" 
 />
    <glyph glyph-name="oe" unicode="&#x153;" 
 />
    <glyph glyph-name="Scaron" unicode="&#x160;" 
 />
    <glyph glyph-name="scaron" unicode="&#x161;" 
 />
    <glyph glyph-name="Ydieresis" unicode="&#x178;" 
 />
    <glyph glyph-name="Zcaron" unicode="&#x17d;" 
 />
    <glyph glyph-name="zcaron" unicode="&#x17e;" 
 />
    <glyph glyph-name="florin" unicode="&#x192;" 
 />
    <glyph glyph-name="circumflex" unicode="&#x2c6;" 
 />
    <glyph glyph-name="tilde" unicode="&#x2dc;" 
 />
    <glyph glyph-name="endash" unicode="&#x2013;" 
 />
    <glyph glyph-name="emdash" unicode="&#x2014;" 
 />
    <glyph glyph-name="quoteleft" unicode="&#x2018;" 
 />
    <glyph glyph-name="quoteright" unicode="&#x2019;" 
 />
    <glyph glyph-name="quotesinglbase" unicode="&#x201a;" 
 />
    <glyph glyph-name="quotedblleft" unicode="&#x201c;" 
 />
    <glyph glyph-name="quotedblright" unicode="&#x201d;" 
 />
    <glyph glyph-name="quotedblbase" unicode="&#x201e;" 
 />
    <glyph glyph-name="dagger" unicode="&#x2020;" 
 />
    <glyph glyph-name="daggerdbl" unicode="&#x2021;" 
 />
    <glyph glyph-name="bullet" unicode="&#x2022;" 
 />
    <glyph glyph-name="ellipsis" unicode="&#x2026;" 
 />
    <glyph glyph-name="perthousand" unicode="&#x2030;" 
 />
    <glyph glyph-name="guilsinglleft" unicode="&#x2039;" 
 />
    <glyph glyph-name="guilsinglright" unicode="&#x203a;" 
 />
    <glyph glyph-name="Euro" unicode="&#x20ac;" 
 />
    <glyph glyph-name="trademark" unicode="&#x2122;" 
 />
    <glyph glyph-name="uni2219" unicode="&#x2219;" 
 />
    <glyph glyph-name="glyph1" horiz-adv-x="0" 
 />
  </font>
</defs>
</svg>
